<svg width="2415" height="992" viewBox="0 0 2415 992" fill="none" xmlns="http://www.w3.org/2000/svg">
<rect width="2415" height="992" fill="white"/>
<rect x="227" y="216" width="1126" height="204" rx="43" stroke="black" stroke-width="10"/>
<rect x="227" y="541" width="1126" height="204" rx="43" stroke="black" stroke-width="10"/>
<path d="M329.73 673V628.088H338.959V635.758H339.615C341.912 630.262 346.875 627.186 353.479 627.186C363.24 627.186 368.531 633.01 368.531 643.879V673H358.975V646.217C358.975 638.998 356.021 635.553 349.869 635.553C343.471 635.553 339.287 640.023 339.287 646.832V673H329.73ZM405.199 627.35C415.535 627.35 421.934 634.609 421.934 646.545V654.543C421.934 666.52 415.535 673.779 405.199 673.779C398.719 673.779 394.125 670.826 392.443 665.658H391.623V688.053H381.779V628.088H391.459V635.471H392.279C394.166 630.221 398.719 627.35 405.199 627.35ZM401.795 635.717C395.396 635.717 391.418 640.105 391.418 647.16V654.215C391.418 661.27 395.396 665.658 401.795 665.658C408.234 665.658 412.213 661.229 412.213 654.215V647.16C412.213 640.105 408.234 635.717 401.795 635.717ZM475.254 638.875V673H467.051V641.91C467.051 637.809 465.287 635.471 462.252 635.471C459.094 635.471 457.125 638.137 457.125 642.361V673H448.963V641.91C448.963 637.768 447.24 635.471 444.164 635.471C440.965 635.471 438.914 638.137 438.914 642.361V673H430.711V628.088H439.078V634.814H440.104C441.129 629.934 444.287 627.186 448.594 627.186C452.777 627.186 455.648 629.852 456.592 634.568H457.617C458.643 629.975 461.965 627.186 466.354 627.186C472.178 627.186 475.254 631.246 475.254 638.875ZM557.531 618.121C553.471 618.121 550.6 615.455 550.6 611.6C550.6 607.744 553.471 605.078 557.531 605.078C561.633 605.078 564.504 607.744 564.504 611.6C564.504 615.455 561.633 618.121 557.531 618.121ZM576.604 673H538.377V665.371H553.184V635.717H538.869V628.088H562.494V665.371H576.604V673ZM589.359 673V628.088H598.588V635.758H599.244C601.541 630.262 606.504 627.186 613.107 627.186C622.869 627.186 628.16 633.01 628.16 643.879V673H618.604V646.217C618.604 638.998 615.65 635.553 609.498 635.553C603.1 635.553 598.916 640.023 598.916 646.832V673H589.359ZM643.213 640.803C643.213 632.436 650.104 627.104 660.727 627.104C671.021 627.104 677.543 631.861 678.158 639.941H669.135C668.479 636.578 665.238 634.486 660.604 634.486C655.805 634.486 652.646 636.701 652.646 640.064C652.646 642.936 654.697 644.576 659.578 645.643L666.264 647.078C675.246 649.006 679.225 652.82 679.225 659.547C679.225 668.283 672.047 673.902 660.768 673.902C649.775 673.902 642.803 669.021 642.146 660.9H651.621C652.441 664.428 655.846 666.438 660.932 666.438C666.141 666.438 669.422 664.141 669.422 660.654C669.422 657.701 667.535 656.184 662.408 655.076L655.682 653.6C647.396 651.754 643.213 647.488 643.213 640.803ZM703.957 615.537H713.309V628.375H730.658V636.086H713.473V659.178C713.473 663.156 716.303 665.371 721.389 665.371C723.029 665.371 729.51 665.33 730.289 665.248V672.877C729.551 673 722.004 673.123 720.65 673.123C708.838 673.123 703.957 669.104 703.957 659.137V636.086H692.145V628.375H703.957V615.537ZM759.082 673.738C750.551 673.738 744.85 668.324 744.85 660.203C744.85 652.164 750.674 647.406 761.42 646.75L772.658 646.094V642.32C772.658 637.686 769.664 635.061 764.414 635.061C760.025 635.061 756.826 636.947 755.842 640.229H746.49C747.311 632.477 754.57 627.35 764.66 627.35C775.775 627.35 782.092 632.805 782.092 642.402V673H773.027V666.725H772.166C769.992 671.195 765.193 673.738 759.082 673.738ZM762.158 665.945C768.229 665.945 772.658 662.049 772.658 656.635V652.533L762.855 653.066C757.236 653.395 754.324 655.65 754.324 659.629C754.324 663.525 757.359 665.945 762.158 665.945ZM836.232 673H798.006V665.371H812.73V618.367H798.498V610.738H822.246V665.371H836.232V673ZM888.158 673H849.932V665.371H864.656V618.367H850.424V610.738H874.172V665.371H888.158V673ZM972.24 673.902C959.854 673.902 952.02 666.191 952.02 653.969V647.119C952.02 634.896 959.854 627.186 972.24 627.186C984.627 627.186 992.461 634.896 992.461 647.119V653.969C992.461 666.191 984.627 673.902 972.24 673.902ZM972.24 635.102C965.596 635.102 961.453 639.9 961.453 647.652V653.436C961.453 661.188 965.596 665.986 972.24 665.986C978.885 665.986 983.027 661.188 983.027 653.436V647.652C983.027 639.9 978.885 635.102 972.24 635.102ZM1043.94 673H1005.71V665.371H1020.43V618.367H1006.2V610.738H1029.95V665.371H1043.94V673ZM1095.86 673H1057.63V665.371H1072.36V618.367H1058.13V610.738H1081.88V665.371H1095.86V673ZM1122.56 673.738C1114.03 673.738 1108.33 668.324 1108.33 660.203C1108.33 652.164 1114.15 647.406 1124.9 646.75L1136.14 646.094V642.32C1136.14 637.686 1133.14 635.061 1127.89 635.061C1123.51 635.061 1120.31 636.947 1119.32 640.229H1109.97C1110.79 632.477 1118.05 627.35 1128.14 627.35C1139.26 627.35 1145.57 632.805 1145.57 642.402V673H1136.51V666.725H1135.65C1133.47 671.195 1128.67 673.738 1122.56 673.738ZM1125.64 665.945C1131.71 665.945 1136.14 662.049 1136.14 656.635V652.533L1126.34 653.066C1120.72 653.395 1117.8 655.65 1117.8 659.629C1117.8 663.525 1120.84 665.945 1125.64 665.945ZM1202.21 638.875V673H1194.01V641.91C1194.01 637.809 1192.25 635.471 1189.21 635.471C1186.05 635.471 1184.09 638.137 1184.09 642.361V673H1175.92V641.91C1175.92 637.768 1174.2 635.471 1171.12 635.471C1167.93 635.471 1165.88 638.137 1165.88 642.361V673H1157.67V628.088H1166.04V634.814H1167.06C1168.09 629.934 1171.25 627.186 1175.55 627.186C1179.74 627.186 1182.61 629.852 1183.55 634.568H1184.58C1185.6 629.975 1188.93 627.186 1193.31 627.186C1199.14 627.186 1202.21 631.246 1202.21 638.875ZM1226.41 673.738C1217.88 673.738 1212.18 668.324 1212.18 660.203C1212.18 652.164 1218.01 647.406 1228.75 646.75L1239.99 646.094V642.32C1239.99 637.686 1237 635.061 1231.75 635.061C1227.36 635.061 1224.16 636.947 1223.17 640.229H1213.82C1214.64 632.477 1221.9 627.35 1231.99 627.35C1243.11 627.35 1249.42 632.805 1249.42 642.402V673H1240.36V666.725H1239.5C1237.32 671.195 1232.53 673.738 1226.41 673.738ZM1229.49 665.945C1235.56 665.945 1239.99 662.049 1239.99 656.635V652.533L1230.19 653.066C1224.57 653.395 1221.66 655.65 1221.66 659.629C1221.66 663.525 1224.69 665.945 1229.49 665.945Z" fill="black"/>
<path d="M350.273 301.35C360.609 301.35 367.008 308.609 367.008 320.545V328.543C367.008 340.52 360.609 347.779 350.273 347.779C343.793 347.779 339.199 344.826 337.518 339.658H336.697V362.053H326.854V302.088H336.533V309.471H337.354C339.24 304.221 343.793 301.35 350.273 301.35ZM346.869 309.717C340.471 309.717 336.492 314.105 336.492 321.16V328.215C336.492 335.27 340.471 339.658 346.869 339.658C353.309 339.658 357.287 335.229 357.287 328.215V321.16C357.287 314.105 353.309 309.717 346.869 309.717ZM398.754 292.121C394.693 292.121 391.822 289.455 391.822 285.6C391.822 281.744 394.693 279.078 398.754 279.078C402.855 279.078 405.727 281.744 405.727 285.6C405.727 289.455 402.855 292.121 398.754 292.121ZM417.826 347H379.6V339.371H394.406V309.717H380.092V302.088H403.717V339.371H417.826V347ZM454.125 301.35C464.461 301.35 470.859 308.609 470.859 320.545V328.543C470.859 340.52 464.461 347.779 454.125 347.779C447.645 347.779 443.051 344.826 441.369 339.658H440.549V362.053H430.705V302.088H440.385V309.471H441.205C443.092 304.221 447.645 301.35 454.125 301.35ZM450.721 309.717C444.322 309.717 440.344 314.105 440.344 321.16V328.215C440.344 335.27 444.322 339.658 450.721 339.658C457.16 339.658 461.139 335.229 461.139 328.215V321.16C461.139 314.105 457.16 309.717 450.721 309.717ZM554.531 292.121C550.471 292.121 547.6 289.455 547.6 285.6C547.6 281.744 550.471 279.078 554.531 279.078C558.633 279.078 561.504 281.744 561.504 285.6C561.504 289.455 558.633 292.121 554.531 292.121ZM573.604 347H535.377V339.371H550.184V309.717H535.869V302.088H559.494V339.371H573.604V347ZM586.359 347V302.088H595.588V309.758H596.244C598.541 304.262 603.504 301.186 610.107 301.186C619.869 301.186 625.16 307.01 625.16 317.879V347H615.604V320.217C615.604 312.998 612.65 309.553 606.498 309.553C600.1 309.553 595.916 314.023 595.916 320.832V347H586.359ZM640.213 314.803C640.213 306.436 647.104 301.104 657.727 301.104C668.021 301.104 674.543 305.861 675.158 313.941H666.135C665.479 310.578 662.238 308.486 657.604 308.486C652.805 308.486 649.646 310.701 649.646 314.064C649.646 316.936 651.697 318.576 656.578 319.643L663.264 321.078C672.246 323.006 676.225 326.82 676.225 333.547C676.225 342.283 669.047 347.902 657.768 347.902C646.775 347.902 639.803 343.021 639.146 334.9H648.621C649.441 338.428 652.846 340.438 657.932 340.438C663.141 340.438 666.422 338.141 666.422 334.654C666.422 331.701 664.535 330.184 659.408 329.076L652.682 327.6C644.396 325.754 640.213 321.488 640.213 314.803ZM700.957 289.537H710.309V302.375H727.658V310.086H710.473V333.178C710.473 337.156 713.303 339.371 718.389 339.371C720.029 339.371 726.51 339.33 727.289 339.248V346.877C726.551 347 719.004 347.123 717.65 347.123C705.838 347.123 700.957 343.104 700.957 333.137V310.086H689.145V302.375H700.957V289.537ZM756.082 347.738C747.551 347.738 741.85 342.324 741.85 334.203C741.85 326.164 747.674 321.406 758.42 320.75L769.658 320.094V316.32C769.658 311.686 766.664 309.061 761.414 309.061C757.025 309.061 753.826 310.947 752.842 314.229H743.49C744.311 306.477 751.57 301.35 761.66 301.35C772.775 301.35 779.092 306.805 779.092 316.402V347H770.027V340.725H769.166C766.992 345.195 762.193 347.738 756.082 347.738ZM759.158 339.945C765.229 339.945 769.658 336.049 769.658 330.635V326.533L759.855 327.066C754.236 327.395 751.324 329.65 751.324 333.629C751.324 337.525 754.359 339.945 759.158 339.945ZM833.232 347H795.006V339.371H809.73V292.367H795.498V284.738H819.246V339.371H833.232V347ZM885.158 347H846.932V339.371H861.656V292.367H847.424V284.738H871.172V339.371H885.158V347ZM969.24 347.902C956.854 347.902 949.02 340.191 949.02 327.969V321.119C949.02 308.896 956.854 301.186 969.24 301.186C981.627 301.186 989.461 308.896 989.461 321.119V327.969C989.461 340.191 981.627 347.902 969.24 347.902ZM969.24 309.102C962.596 309.102 958.453 313.9 958.453 321.652V327.436C958.453 335.188 962.596 339.986 969.24 339.986C975.885 339.986 980.027 335.188 980.027 327.436V321.652C980.027 313.9 975.885 309.102 969.24 309.102ZM1040.94 347H1002.71V339.371H1017.43V292.367H1003.2V284.738H1026.95V339.371H1040.94V347ZM1092.86 347H1054.63V339.371H1069.36V292.367H1055.13V284.738H1078.88V339.371H1092.86V347ZM1119.56 347.738C1111.03 347.738 1105.33 342.324 1105.33 334.203C1105.33 326.164 1111.15 321.406 1121.9 320.75L1133.14 320.094V316.32C1133.14 311.686 1130.14 309.061 1124.89 309.061C1120.51 309.061 1117.31 310.947 1116.32 314.229H1106.97C1107.79 306.477 1115.05 301.35 1125.14 301.35C1136.26 301.35 1142.57 306.805 1142.57 316.402V347H1133.51V340.725H1132.65C1130.47 345.195 1125.67 347.738 1119.56 347.738ZM1122.64 339.945C1128.71 339.945 1133.14 336.049 1133.14 330.635V326.533L1123.34 327.066C1117.72 327.395 1114.8 329.65 1114.8 333.629C1114.8 337.525 1117.84 339.945 1122.64 339.945ZM1199.21 312.875V347H1191.01V315.91C1191.01 311.809 1189.25 309.471 1186.21 309.471C1183.05 309.471 1181.09 312.137 1181.09 316.361V347H1172.92V315.91C1172.92 311.768 1171.2 309.471 1168.12 309.471C1164.93 309.471 1162.88 312.137 1162.88 316.361V347H1154.67V302.088H1163.04V308.814H1164.06C1165.09 303.934 1168.25 301.186 1172.55 301.186C1176.74 301.186 1179.61 303.852 1180.55 308.568H1181.58C1182.6 303.975 1185.93 301.186 1190.31 301.186C1196.14 301.186 1199.21 305.246 1199.21 312.875ZM1223.41 347.738C1214.88 347.738 1209.18 342.324 1209.18 334.203C1209.18 326.164 1215.01 321.406 1225.75 320.75L1236.99 320.094V316.32C1236.99 311.686 1234 309.061 1228.75 309.061C1224.36 309.061 1221.16 310.947 1220.17 314.229H1210.82C1211.64 306.477 1218.9 301.35 1228.99 301.35C1240.11 301.35 1246.42 306.805 1246.42 316.402V347H1237.36V340.725H1236.5C1234.32 345.195 1229.53 347.738 1223.41 347.738ZM1226.49 339.945C1232.56 339.945 1236.99 336.049 1236.99 330.635V326.533L1227.19 327.066C1221.57 327.395 1218.66 329.65 1218.66 333.629C1218.66 337.525 1221.69 339.945 1226.49 339.945Z" fill="black"/>
<path d="M1619.18 460.589C1618.65 462.506 1617.96 464.423 1617.44 466.514C1612.9 483.592 1608.55 500.67 1604.02 517.748C1602.97 521.756 1602.62 525.764 1603.15 529.772C1603.32 531.514 1603.49 533.083 1603.67 534.825C1604.02 538.311 1603.15 541.448 1601.05 544.236C1598.44 547.721 1595.83 551.032 1593.39 554.517C1591.47 557.131 1588.86 558.177 1585.89 557.48C1581.19 556.434 1576.66 555.04 1572.13 553.82C1569.69 553.123 1568.12 551.206 1567.77 548.592C1567.07 543.713 1566.38 538.659 1566.03 533.606C1565.85 531.863 1566.55 529.946 1567.25 528.029C1567.77 526.635 1568.47 525.415 1569.51 524.37C1574.57 518.27 1576.83 511.126 1578.75 503.632C1582.58 488.82 1586.76 474.181 1590.77 459.369C1591.47 457.104 1592.34 454.838 1591.82 452.05C1589.38 451.179 1586.94 450.307 1584.67 449.436C1579.27 447.171 1577.7 444.382 1579.1 438.806C1579.79 435.321 1580.84 431.835 1581.89 428.524C1583.28 424.516 1585.72 422.948 1589.9 422.774C1592.52 422.774 1595.13 422.774 1598.27 422.774C1597.92 421.031 1597.74 419.637 1597.22 418.591C1595.65 415.106 1595.48 411.621 1596.35 408.135C1601.23 383.738 1606.63 359.516 1613.78 335.816C1615 331.982 1616.22 328.148 1618.13 324.488C1622.14 316.298 1628.07 313.336 1636.78 315.078C1641.14 315.949 1645.67 316.995 1649.85 318.563C1658.91 321.874 1662.22 326.928 1661.87 336.513C1661.7 338.952 1661.18 341.218 1660.83 343.657C1660.48 345.923 1660.13 348.363 1659.61 350.802C1660.65 351.325 1661.52 351.674 1662.4 352.022C1673.03 355.333 1682.26 361.258 1690.28 369.1C1695.16 373.98 1699.86 379.207 1704.39 384.435C1710.32 391.232 1716.07 398.376 1721.99 405.173C1732.62 417.197 1745.17 427.13 1759.11 435.321C1760.16 435.843 1761.2 436.366 1762.6 437.063C1764.51 433.404 1766.43 429.918 1768.52 425.91C1767.65 424.342 1766.95 422.599 1766.08 421.031C1751.62 394.717 1746.74 366.312 1749.88 336.687C1751.1 324.314 1754.06 312.29 1758.94 300.788C1759.98 298.523 1759.98 296.258 1759.29 293.818C1748.31 255.305 1758.59 221.847 1783.51 191.873C1785.6 189.259 1788.04 186.994 1789.78 184.903C1790.13 172.181 1790.31 159.983 1790.83 147.784C1791.53 134.192 1792.92 120.599 1796.4 107.529C1797.97 101.604 1800.24 95.6793 1802.5 90.1028C1804.42 85.3977 1807.38 81.3896 1811.04 77.7301C1820.28 68.4941 1832.83 66.4029 1844.68 71.9794C1850.25 74.5933 1854.61 78.4271 1858.62 82.958C1862.97 88.0117 1866.46 93.7624 1869.42 99.8617C1873.6 108.575 1876.57 117.462 1879.35 126.698C1880.05 128.964 1880.75 131.229 1881.62 133.669C1912.12 124.956 1941.57 127.047 1970.15 140.117C1972.06 138.026 1971.89 135.586 1972.41 133.32C1974.5 125.304 1976.07 116.94 1978.51 109.098C1980.25 103.173 1982.87 97.422 1985.66 92.0198C1988.79 85.7462 1993.15 80.344 1998.55 75.8132C2010.58 65.8801 2025.56 65.3573 2038.11 74.5933C2043.86 78.7757 2048.04 84.1779 2051.53 90.1028C2056.06 98.119 2059.2 106.484 2061.29 115.371C2067.21 139.245 2069.48 163.294 2068.43 187.865C2068.08 197.624 2067.39 195.01 2072.61 202.329C2088.3 224.635 2096.49 249.38 2095.79 276.914C2095.62 288.939 2093.18 300.614 2089.17 311.941C2088.3 314.381 2087.43 316.821 2086.38 319.435C2086.73 320.655 2087.08 321.7 2087.43 322.746C2094.4 338.604 2095.44 354.985 2093.35 371.888C2091.26 389.141 2085.51 405.347 2077.67 420.682C2076.45 422.948 2075.23 425.387 2073.83 428.001C2074.88 429.396 2075.92 430.964 2076.97 432.358C2090.56 448.565 2099.28 467.211 2103.11 488.123C2105.55 501.192 2105.55 514.262 2103.46 527.332C2103.28 528.203 2103.11 529.249 2102.94 530.295C2103.46 530.992 2103.81 531.863 2104.5 532.56C2119.32 546.85 2127.33 564.625 2131.17 584.665C2136.22 611.153 2133.43 636.944 2124.72 662.213C2124.02 664.478 2123.15 666.744 2122.63 668.312C2125.07 675.108 2127.86 681.382 2129.6 687.655C2134.3 704.733 2133.78 722.16 2129.95 739.412C2124.37 763.46 2112.87 784.372 2095.27 801.799C2085.51 811.383 2074.18 819.051 2061.11 823.582C2043.51 829.681 2026.09 829.681 2009.01 820.968C2007.96 820.445 2006.92 820.096 2005.52 819.573C2003.26 821.49 2001.17 823.407 1998.9 825.15C1991.58 830.378 1984.26 835.954 1976.77 840.834C1956.73 853.729 1936.16 865.753 1914.21 875.338C1902.88 880.392 1891.2 884.4 1879.01 887.014C1866.46 889.628 1853.91 889.976 1841.54 886.142C1819.76 879.52 1802.33 858.434 1800.06 836.129C1798.84 824.453 1802.33 814.52 1810 805.807C1814.01 801.276 1818.71 797.616 1823.94 794.654C1825.86 793.608 1827.6 792.562 1829.86 791.343C1828.64 789.251 1826.55 788.729 1824.81 787.683C1823.24 786.637 1821.5 785.766 1819.41 784.721C1814.18 787.683 1808.78 790.646 1803.38 793.608C1798.15 796.396 1792.75 799.01 1787.52 801.799C1786.12 807.549 1786.47 813.3 1786.3 819.051C1786.12 824.976 1786.12 831.075 1785.77 837C1785.6 840.485 1785.08 844.145 1784.21 847.63C1782.81 853.381 1779.15 857.215 1773.05 858.434C1771.66 858.609 1770.26 858.957 1768.87 859.131C1753.19 860.526 1737.5 861.048 1721.65 860.7C1720.77 860.7 1719.73 860.7 1718.86 860.526C1712.41 859.828 1709.1 857.215 1708.4 850.767C1707.7 844.145 1707.53 837.523 1707.18 830.726C1707.01 828.461 1707.01 826.021 1707.01 824.104C1705.09 822.013 1703 822.884 1701.26 822.884C1691.67 823.233 1682.09 822.884 1672.85 820.096C1654.38 814.694 1640.09 803.89 1630.85 786.812C1626.15 777.924 1624.58 768.34 1625.8 758.407C1627.02 748.474 1631.72 740.457 1639.04 733.835C1644.62 728.782 1651.07 725.296 1658.21 723.031C1666.58 720.417 1675.12 718.152 1683.66 715.886C1693.41 713.272 1703 711.007 1712.76 708.393C1714.5 707.87 1716.24 707.173 1717.99 706.476C1716.94 699.157 1715.89 692.012 1714.85 684.519C1712.41 684.519 1710.14 684.344 1707.7 684.344C1699.34 684.519 1690.97 683.299 1682.96 681.208C1669.19 677.548 1657.69 670.229 1648.28 659.599C1641.31 651.583 1635.91 642.695 1631.72 632.936C1631.03 631.194 1630.33 629.451 1629.46 627.534C1627.72 626.837 1625.8 626.314 1624.06 625.617C1615.69 622.306 1609.59 616.555 1605.59 608.539C1602.45 602.092 1600.36 595.295 1599.14 588.15C1597.92 581.703 1600.18 578.043 1606.28 576.126C1609.94 575.081 1613.6 574.035 1617.44 573.338C1624.06 571.944 1628.07 574.383 1629.98 580.657C1630.68 583.097 1631.38 585.711 1632.25 588.15C1632.6 589.196 1633.29 590.242 1634.16 591.113C1635.04 592.158 1636.95 592.158 1638 591.113C1639.57 589.719 1640.26 587.976 1640.09 586.059C1640.09 582.748 1639.74 579.437 1639.39 576.126C1638.87 570.724 1640.09 568.459 1644.97 566.89C1650.89 564.973 1656.99 563.928 1663.27 563.579C1667.45 563.405 1669.37 564.973 1670.76 568.807C1671.11 569.678 1671.28 570.724 1671.46 571.595C1673.37 580.831 1673.72 590.067 1672.68 599.303C1672.15 604.88 1669.71 609.759 1667.1 614.464C1676.16 636.422 1695.85 644.089 1715.89 640.952C1717.46 638.687 1716.94 635.899 1717.11 633.285C1717.64 628.057 1717.81 622.829 1718.51 617.601C1719.38 611.328 1721.82 608.888 1728.27 608.365C1733.5 607.842 1738.72 607.668 1743.95 607.319C1745.52 607.145 1747.26 606.971 1748.66 606.797C1749 599.478 1749.35 592.681 1749.88 585.362C1748.83 584.839 1747.61 584.142 1746.39 583.62C1738.03 580.308 1732.45 574.383 1730.36 565.67C1729.49 561.662 1727.22 559.745 1723.91 557.828C1685.92 535.697 1652.99 507.815 1629.29 470.173C1627.72 467.734 1626.32 465.294 1624.75 462.854C1623.71 460.066 1621.79 459.543 1619.18 460.589ZM1980.08 701.074C1980.6 701.422 1981.47 702.293 1982.52 702.816C1995.76 712.227 2000.47 725.819 2001.17 741.329C2001.34 744.814 1999.95 747.254 1996.81 748.822C1991.75 751.61 1986.18 753.179 1980.6 754.224C1976.59 755.096 1974.33 753.527 1972.93 749.519C1972.06 747.08 1971.71 744.465 1970.67 742.026C1969.97 740.109 1968.93 738.018 1967.71 736.449C1965.96 734.184 1962.3 734.881 1961.08 737.495C1960.21 739.586 1959.69 742.026 1959.69 744.465C1959.52 747.777 1959.69 751.088 1959.86 754.399C1960.04 756.315 1960.39 758.232 1960.91 759.975C1963 766.074 1965.62 771.999 1969.45 777.227C1978.34 789.251 1990.01 797.093 2005.17 798.662C2009.01 799.01 2012.49 800.579 2015.8 802.67C2025.39 808.769 2036.02 809.815 2046.82 807.549C2060.07 804.935 2071.22 798.139 2080.98 788.903C2096.31 774.439 2106.25 756.664 2111.13 736.275C2116.18 715.189 2115.83 694.626 2103.98 675.457C2102.06 672.32 2101.89 669.183 2102.94 665.872C2103.81 663.433 2104.85 660.993 2105.72 658.553C2114.26 635.55 2117.23 611.85 2112.35 587.453C2109.03 570.375 2102.06 555.214 2088.47 543.713C2083.77 539.705 2082.02 535 2083.59 529.075C2083.77 528.203 2083.94 527.158 2084.12 526.286C2089.17 497.707 2082.55 471.916 2065.47 448.565C2064.77 447.519 2063.55 446.648 2062.68 445.776C2060.76 447.171 2059.2 448.39 2057.63 449.262C2051.35 452.398 2044.38 447.868 2044.73 440.897C2044.91 439.154 2045.43 437.237 2046.3 435.495C2047.35 433.404 2048.91 431.487 2050.13 429.57C2060.76 413.537 2068.95 396.285 2072.79 377.29C2076.27 360.038 2076.1 343.135 2068.08 326.928C2065.47 321.7 2065.99 316.472 2068.26 311.07C2078.19 288.241 2078.71 264.89 2070.7 241.19C2065.29 224.983 2056.23 211.217 2044.56 198.844C2042.99 197.101 2041.07 195.533 2039.85 193.442C2036.02 187.691 2038.28 181.417 2044.91 179.326C2046.13 178.978 2047.52 178.455 2048.74 178.106C2048.91 176.712 2048.91 175.841 2048.91 174.795C2048.39 158.763 2047 142.905 2043.69 127.221C2042.12 119.902 2040.37 112.757 2037.41 105.961C2035.5 101.953 2033.4 97.7705 2030.79 94.1109C2022.95 84.0036 2014.06 83.8293 2005.87 93.7624C2002.04 98.119 1999.6 103.347 1997.51 108.749C1994.19 117.462 1991.93 126.524 1990.19 135.586C1989.32 140.64 1988.62 145.867 1987.92 150.921C1990.36 153.535 1992.8 155.626 1994.54 158.066C1997.33 161.9 1996.98 166.779 1993.85 169.916C1991.06 172.878 1986.53 173.401 1982.69 171.31C1980.78 170.264 1979.21 168.87 1977.47 167.476C1971.19 162.423 1964.22 158.24 1956.55 155.103C1938.26 147.436 1919.26 145.17 1899.74 148.307C1882.67 151.095 1867.16 157.543 1854.43 169.742C1851.47 172.704 1847.81 174.447 1843.8 175.318C1841.02 175.841 1838.23 176.712 1835.61 177.584C1807.38 187.691 1788.39 207.557 1777.93 235.439C1772.7 249.38 1770.96 263.67 1773.75 278.308C1774.62 283.013 1776.19 287.544 1777.58 292.075C1778.8 295.909 1778.98 299.394 1777.24 303.228C1771.31 315.078 1768.17 327.974 1767.3 341.044C1765.04 370.494 1770.61 398.028 1788.74 422.251C1789.78 423.819 1791 425.387 1791.7 427.13C1793.62 432.01 1791.53 436.889 1786.65 438.806C1784.9 439.503 1782.99 439.851 1781.42 440.2C1778.8 444.731 1777.76 449.436 1777.06 454.141C1776.89 455.535 1776.89 456.929 1776.71 458.498C1776.02 462.854 1773.4 465.643 1769.57 466.34C1765.39 467.211 1761.2 465.468 1759.63 461.112C1758.24 456.929 1755.28 455.012 1751.97 453.095C1731.06 441.071 1713.11 425.562 1697.95 406.741C1693.59 401.339 1689.23 395.937 1684.53 390.883C1680.17 386.178 1675.64 381.473 1670.59 377.465C1666.93 374.502 1662.4 372.585 1658.21 370.494C1656.82 369.797 1655.08 369.971 1653.68 369.797C1653.16 370.843 1652.81 371.54 1652.46 372.237C1648.11 386.178 1643.75 399.945 1639.57 413.886C1637.82 419.985 1635.73 425.736 1629.98 429.57C1630.85 430.964 1631.38 432.358 1632.42 433.229C1633.29 434.101 1634.51 434.275 1635.56 434.972C1639.74 437.586 1641.31 439.851 1639.92 444.382C1638.7 448.39 1639.92 451.353 1641.83 454.49C1643.05 456.232 1644.1 458.149 1645.14 460.066C1664.49 491.085 1691.32 514.437 1721.65 534.303C1722.52 534.825 1723.74 535 1725.3 535.523C1724.96 530.12 1724.78 525.415 1724.43 520.71C1724.08 514.785 1723.91 508.86 1724.96 502.935C1726.87 491.434 1733.32 483.766 1744.47 480.455C1750.22 478.887 1756.15 477.841 1762.07 477.493C1800.41 475.227 1838.93 475.75 1877.26 476.447C1882.67 476.621 1888.24 476.97 1893.64 477.667C1898.18 478.364 1902.71 479.235 1906.89 480.804C1915.25 483.94 1920.66 490.214 1922.75 498.753C1923.79 502.935 1924.14 507.292 1924.31 511.474C1924.66 524.195 1923.44 536.742 1921.87 549.289C1921.18 554.866 1920.13 560.617 1918.56 566.193C1916.47 574.035 1911.07 579.437 1903.58 582.4C1900.44 583.619 1897.13 584.491 1893.99 585.014C1887.89 585.711 1881.62 586.233 1875.52 586.408C1868.2 586.756 1860.71 586.582 1853.39 586.756C1851.82 586.756 1850.25 587.279 1848.51 587.453C1847.29 593.553 1847.64 598.955 1849.21 604.183C1850.25 604.531 1850.6 604.705 1851.12 604.88C1861.58 605.228 1872.04 605.577 1882.67 606.1C1885.11 606.274 1886.67 605.228 1888.42 603.66C1897.65 595.469 1907.06 587.279 1916.47 579.263C1936.86 562.185 1955.86 543.713 1973.11 523.498C1979.9 515.482 1986.7 507.466 1993.32 499.45C1994.37 498.23 1995.41 496.836 1996.81 495.79C2000.47 492.828 2004.65 492.828 2007.96 495.267C2011.27 497.707 2012.67 502.064 2010.92 506.072C2009.88 508.512 2008.48 510.777 2006.92 512.694C1985.83 538.659 1963.7 563.579 1938.08 585.536C1929.37 593.03 1920.48 600.175 1911.77 607.668C1907.24 611.502 1902.88 615.684 1898.7 619.866C1895.04 623.7 1891.9 627.883 1889.98 632.936C1886.67 641.127 1887.54 648.969 1893.12 655.765C1895.74 658.902 1898.7 661.69 1902.01 663.955C1912.12 671.274 1923.62 672.32 1935.47 670.055C1945.23 668.138 1954.11 664.304 1962.3 658.727C1969.62 653.848 1976.94 648.62 1983.56 643.044C1994.19 634.156 2004.48 624.92 2014.76 615.684C2016.33 614.29 2017.89 612.722 2019.64 611.502C2023.99 608.539 2028.87 608.888 2032.01 612.199C2035.15 615.51 2035.32 620.564 2032.36 624.746C2031.49 625.966 2030.44 627.011 2029.4 627.883C2013.54 642.695 1997.33 657.333 1979.73 669.88C1978.16 670.926 1976.77 672.146 1975.55 673.017C1977.81 682.427 1978.86 691.141 1980.08 701.074ZM1943.48 769.385C1942.44 769.734 1941.57 769.908 1940.7 770.257C1911.59 782.804 1881.62 793.259 1851.47 803.018C1846.77 804.587 1842.06 806.504 1837.53 808.421C1833.17 810.337 1829.17 812.951 1825.68 816.262C1819.76 821.839 1817.84 828.635 1819.41 836.477C1822.37 852.335 1836.31 865.754 1852.17 868.542C1860.36 869.936 1868.38 869.239 1876.39 867.496C1891.2 864.359 1905.15 858.783 1918.56 851.987C1938.78 841.879 1958.3 830.378 1977.12 817.482C1978.34 816.611 1979.56 815.914 1980.6 815.043C1981.47 814.346 1982.69 813.823 1982.34 812.603C1976.94 808.769 1971.54 805.284 1966.49 801.45C1961.26 797.268 1956.73 792.214 1953.24 786.463C1949.58 780.887 1946.62 775.31 1943.48 769.385ZM1907.93 687.83C1907.76 690.792 1907.76 693.058 1907.59 695.497C1907.41 698.634 1907.41 701.771 1906.89 704.733C1905.67 712.749 1902.01 716.583 1893.99 717.803C1888.76 718.674 1883.54 719.023 1878.31 719.023C1851.3 719.197 1824.46 719.197 1797.45 719.371C1787.87 719.371 1778.28 719.371 1768.87 719.023C1764.34 718.849 1759.81 718.5 1755.45 717.629C1749 716.235 1745 712.227 1744.3 705.43C1743.95 701.945 1743.6 698.285 1743.43 694.8C1743.08 685.216 1742.73 675.805 1742.56 666.221C1742.56 659.773 1742.56 653.325 1742.91 646.877C1743.6 636.422 1747.96 631.716 1758.24 630.497C1764.69 629.8 1771.14 629.277 1777.58 629.277C1806.51 629.102 1835.27 629.102 1864.19 629.102C1866.63 629.102 1868.9 629.102 1871.34 629.102C1873.08 625.443 1875.17 622.48 1875.52 618.124C1872.73 617.95 1870.47 617.775 1868.03 617.775C1839.1 616.904 1810.35 616.904 1781.42 617.775C1767.13 618.298 1752.84 618.821 1738.55 619.518C1735.93 619.692 1733.32 619.169 1730.88 621.086C1730.71 621.958 1730.36 622.829 1730.36 623.875C1729.49 640.255 1728.44 656.81 1727.57 673.191C1727.4 678.594 1727.92 684.17 1728.27 689.572C1729.66 707.521 1737.68 721.985 1751.97 732.79C1758.24 737.495 1764.86 741.852 1771.66 745.685C1794.49 758.407 1818.88 762.937 1844.85 758.058C1867.33 753.876 1886.5 743.246 1903.58 728.607C1905.15 727.213 1906.71 725.645 1908.11 724.077C1915.08 716.235 1919.44 706.999 1921.53 696.717C1921.87 694.626 1922.75 692.535 1921.18 690.269C1917.34 689.572 1913.16 688.875 1907.93 687.83ZM1725.65 723.902C1725.13 723.902 1724.26 724.077 1723.39 724.251C1710.49 727.562 1697.6 730.873 1684.7 734.358C1678.08 736.101 1671.28 737.843 1664.83 739.935C1660.3 741.329 1655.95 743.594 1652.29 746.731C1647.06 751.088 1644.27 756.664 1644.27 763.635C1644.27 769.037 1645.67 774.09 1648.28 778.621C1655.95 791.865 1667.45 799.533 1682.26 802.321C1689.06 803.715 1696.03 803.715 1703 803.018C1717.29 801.798 1731.23 798.313 1745 794.654C1746.04 794.305 1747.09 793.608 1748.31 793.085C1749.53 779.144 1753.54 765.9 1758.76 753.004C1752.84 748.474 1746.74 744.64 1741.51 739.935C1735.76 735.23 1731.06 729.479 1725.65 723.902ZM1868.9 638.687C1865.94 638.513 1863.32 638.339 1860.71 638.339C1849.56 638.339 1838.23 638.164 1827.08 638.339C1807.03 638.513 1786.99 638.861 1766.95 639.21C1763.82 639.21 1760.85 639.907 1757.72 640.255C1754.76 640.604 1753.01 642.347 1752.66 645.309C1752.32 647.923 1751.79 650.537 1751.97 653.151C1752.32 669.183 1752.84 685.041 1753.19 701.074C1753.19 701.945 1753.36 702.991 1753.54 703.862C1753.88 706.127 1755.1 707.87 1757.54 708.393C1760.51 708.916 1763.64 709.438 1766.78 709.438C1784.73 709.613 1802.5 709.613 1820.45 709.613C1824.11 709.613 1827.6 709.613 1831.26 709.613C1848.86 709.613 1866.63 709.613 1884.23 709.438C1887.37 709.438 1890.33 708.916 1893.47 708.393C1896.08 708.044 1897.65 706.127 1897.83 703.513C1898.18 696.891 1898.7 690.269 1898 683.822C1876.04 668.312 1872.56 663.084 1868.9 638.687ZM1826.38 488.297C1811.91 488.471 1801.28 488.645 1790.48 488.82C1780.2 489.168 1769.92 489.517 1759.81 490.214C1755.8 490.562 1751.79 491.434 1747.96 492.479C1742.73 494.048 1739.42 497.707 1738.37 503.109C1737.85 506.42 1737.15 509.731 1737.5 513.042C1738.37 526.287 1739.59 539.705 1740.81 552.949C1741.16 556.086 1742.03 559.048 1742.73 562.011C1743.95 567.064 1747.44 570.201 1752.32 571.595C1755.45 572.467 1758.76 573.164 1762.07 573.338C1772.88 573.861 1783.51 573.861 1794.31 574.383C1824.46 575.778 1854.43 573.861 1884.41 573.338C1885.8 573.338 1887.37 573.338 1888.76 572.989C1892.08 572.292 1895.39 571.77 1898.52 570.898C1903.23 569.504 1906.19 566.367 1907.59 561.488C1908.28 559.048 1908.98 556.434 1909.15 553.82C1910.2 542.493 1911.24 530.992 1912.12 519.664C1912.46 515.482 1912.29 511.126 1912.12 506.769C1911.42 497.533 1907.59 493.176 1898.52 490.911C1897.3 490.562 1896.26 490.388 1895.04 490.214C1889.64 489.691 1884.06 488.994 1878.66 488.994C1860.01 488.645 1841.36 488.471 1826.38 488.297ZM1862.8 139.942C1860.01 127.221 1856 114.674 1849.56 103.173C1848.16 100.384 1846.24 97.9448 1844.33 95.5051C1842.93 93.5881 1841.19 92.0197 1839.27 90.4514C1832.65 85.572 1826.73 86.269 1822.02 92.8911C1820.28 95.3308 1818.71 98.119 1817.66 101.082C1815.92 105.961 1814.35 111.015 1813.31 116.068C1809.82 132.275 1808.95 148.656 1808.6 165.211C1808.6 166.082 1808.78 167.128 1808.95 168.348C1810 167.999 1811.04 167.999 1811.74 167.65C1820.28 162.771 1829.34 159.286 1838.93 156.846C1840.32 156.498 1841.71 155.975 1842.76 155.103C1849.38 150.398 1855.65 145.519 1862.8 139.942ZM1629.98 327.102C1628.94 329.368 1627.72 331.459 1626.85 333.55C1625.8 336.164 1624.93 338.952 1624.23 341.741C1617.96 363.524 1612.9 385.481 1608.37 407.787C1607.85 410.401 1607.85 412.84 1608.9 415.454C1609.77 417.371 1610.12 419.637 1610.29 421.728C1610.81 427.653 1607.68 432.532 1601.93 434.449C1600.01 435.146 1597.74 435.321 1595.65 435.669C1594.78 435.843 1593.74 435.843 1592.86 436.018C1592.52 436.192 1591.99 436.715 1591.99 437.063C1591.99 437.76 1591.99 438.806 1592.34 438.98C1594.26 439.851 1596.17 440.897 1598.27 441.42C1605.06 443.337 1612.03 445.254 1619 446.996C1620.92 447.519 1622.66 447.868 1624.58 448.042C1626.5 448.216 1627.02 446.996 1626.85 445.079C1625.1 443.86 1623.01 442.64 1621.27 441.071C1615.34 436.018 1614.82 428.698 1619.7 422.599C1620.75 421.379 1621.97 420.16 1623.36 419.114C1625.45 417.72 1626.5 415.629 1627.19 413.363C1629.11 407.264 1631.2 401.165 1633.29 395.065C1638.87 378.336 1643.4 361.258 1647.41 344.18C1648.11 341.218 1648.45 338.081 1648.8 334.944C1648.98 332.853 1647.93 331.11 1646.01 330.413C1641.31 328.671 1636.43 326.405 1629.98 327.102ZM1720.25 846.584C1728.96 848.327 1761.73 847.107 1771.31 844.842C1773.75 839.44 1774.8 827.764 1773.4 820.619C1763.82 818.179 1729.14 818.354 1719.73 821.142C1718.86 829.332 1719.9 837.697 1720.25 846.584ZM1585.72 547.721C1594.43 539.008 1594.61 538.659 1593.39 527.855C1593.04 524.195 1593.39 520.71 1594.26 517.225C1599.14 498.753 1604.02 480.281 1608.72 461.809C1609.07 460.415 1609.24 459.195 1609.59 457.452C1606.98 456.407 1604.54 455.187 1601.4 455.709C1600.71 457.626 1600.01 459.543 1599.49 461.634C1595.13 477.318 1590.77 492.828 1586.76 508.512C1584.85 515.831 1582.58 522.627 1577.7 528.552C1577.35 528.9 1577.18 529.423 1576.83 529.772C1575.44 531.514 1574.91 533.606 1575.26 535.871C1575.79 539.182 1575.61 542.493 1577.35 545.63C1580.49 546.327 1583.28 547.024 1585.72 547.721ZM1927.63 754.747C1927.45 753.353 1927.45 751.61 1927.28 750.042C1926.93 745.337 1926.23 740.457 1926.58 735.752C1927.1 725.645 1929.37 715.886 1936.34 707.87C1939.13 704.559 1939.82 701.248 1938.78 697.24C1938.26 695.323 1938.6 692.883 1935.82 691.489C1935.47 693.232 1935.29 694.452 1935.12 695.846C1932.16 714.492 1923.27 730.002 1908.46 741.677C1904.1 745.163 1899.57 748.125 1895.04 751.262C1893.64 752.133 1892.08 753.004 1890.86 753.876C1889.98 754.573 1888.76 755.444 1888.59 756.49C1887.2 761.021 1885.8 765.552 1886.85 770.431C1893.82 768.863 1918.74 759.278 1927.63 754.747ZM1947.32 747.777C1947.49 744.814 1947.67 742.549 1947.84 740.109C1948.01 736.275 1949.41 732.616 1951.67 729.479C1957.25 721.811 1967.53 720.243 1975.03 725.994C1977.99 728.259 1980.08 731.047 1981.47 734.532C1982.34 736.449 1983.04 738.366 1983.91 740.109C1984.78 740.109 1985.31 740.283 1985.66 740.109C1986.53 739.76 1987.4 739.412 1988.1 739.063C1988.44 725.994 1981.3 714.666 1969.97 709.961C1960.56 705.953 1951.33 708.567 1945.23 716.757C1942.96 719.894 1941.39 723.38 1940.52 727.039C1938.43 734.881 1938.43 742.549 1940.7 748.996C1942.44 748.474 1944.53 748.125 1947.32 747.777ZM1659.61 575.603C1656.99 576.126 1654.9 576.475 1652.64 576.997C1652.64 579.611 1652.81 581.703 1652.64 583.794C1652.29 586.756 1651.94 590.067 1650.89 592.856C1648.28 599.303 1643.57 603.311 1636.43 603.66C1629.29 604.008 1624.75 600.175 1621.79 594.25C1620.57 591.984 1619.87 589.37 1619 586.931C1618.83 586.233 1618.13 585.885 1617.61 585.188C1616.39 585.536 1615.34 585.711 1614.12 586.059C1613.43 586.233 1612.9 586.756 1612.03 587.105C1612.38 591.984 1614.12 596.341 1616.04 600.697C1620.57 611.153 1630.16 616.381 1641.48 614.813C1651.94 613.419 1659.08 606.274 1660.65 595.818C1661.52 589.37 1661 582.922 1659.61 575.603ZM1802.68 604.183C1804.07 598.606 1804.77 593.378 1803.38 587.976C1796.58 586.582 1778.8 586.059 1769.92 587.105C1768 592.856 1767.65 598.78 1768.87 604.705C1773.4 605.403 1795.01 605.054 1802.68 604.183ZM1816.44 603.834C1824.98 604.88 1831.61 604.705 1836.14 603.311C1836.14 598.258 1836.49 593.03 1835.27 587.628C1828.99 587.279 1822.89 586.582 1816.44 588.15C1816.44 593.553 1816.44 598.432 1816.44 603.834ZM1696.03 652.802C1693.41 651.234 1690.97 650.363 1688.36 650.711C1685.05 655.765 1681.74 660.644 1678.43 665.698C1682.78 667.441 1686.62 669.706 1691.67 668.66C1693.24 663.433 1694.63 658.205 1696.03 652.802ZM1951.33 696.543C1956.73 696.02 1961.43 695.671 1966.49 695.323C1966.66 690.966 1967.36 686.435 1964.4 682.602C1956.9 683.299 1953.94 684.344 1949.41 688.701C1949.93 691.141 1950.45 693.58 1951.33 696.543ZM1666.4 658.553C1671.46 654.719 1674.94 650.537 1676.34 644.438C1674.07 642.869 1671.98 641.301 1669.71 639.907C1667.45 641.998 1665.71 643.741 1663.79 645.483C1661.87 647.052 1659.78 648.62 1657.69 650.363C1659.96 653.848 1662.74 656.462 1666.4 658.553ZM1643.92 627.36C1645.67 634.156 1646.71 635.725 1650.55 639.21C1655.25 637.293 1658.39 633.633 1661.52 629.451C1659.78 626.837 1659.08 624.049 1656.47 622.655C1652.29 624.397 1648.28 625.791 1643.92 627.36ZM1714.67 670.229C1715.72 664.827 1715.72 659.424 1715.55 653.848C1714.33 653.674 1713.45 653.325 1712.58 653.325C1711.36 653.325 1710.32 653.5 1708.92 653.674C1707.18 659.25 1705.44 664.478 1704.57 670.229C1708.05 671.797 1711.19 671.275 1714.67 670.229ZM1782.81 765.377C1778.46 762.938 1774.27 760.846 1769.74 759.627C1768 762.763 1766.61 765.551 1766.26 769.037C1770.79 771.302 1775.32 771.825 1780.37 772.174C1781.24 769.908 1781.94 767.817 1782.81 765.377ZM1760.51 798.487C1759.98 801.624 1759.63 803.89 1760.85 806.504C1765.21 806.678 1769.39 807.201 1773.58 806.852C1774.45 804.412 1774.8 802.496 1773.58 800.23C1769.57 799.707 1765.39 799.185 1760.51 798.487ZM1859.14 771.302C1864.72 772.174 1868.72 771.128 1872.56 770.257C1873.43 767.817 1873.95 765.9 1872.38 763.46C1868.9 764.68 1865.24 765.726 1861.75 767.12C1861.06 767.643 1860.53 769.211 1859.14 771.302ZM1773.92 787.857C1774.45 787.683 1775.14 787.509 1775.67 787.16C1776.02 786.986 1776.19 786.463 1776.36 785.94C1776.36 785.592 1776.02 785.069 1775.84 784.721C1775.67 784.546 1775.49 784.372 1775.32 784.372C1771.66 783.675 1767.83 782.804 1764.17 782.281C1763.64 782.107 1762.42 783.152 1762.25 783.675C1762.07 784.372 1762.77 785.243 1763.29 785.94C1763.47 786.289 1764.17 786.463 1764.51 786.463C1767.65 786.986 1770.79 787.335 1773.92 787.857ZM1795.53 768.863C1793.09 773.393 1793.09 773.393 1793.79 776.182C1799.89 773.568 1799.89 773.568 1801.98 770.257C1799.89 769.908 1797.8 769.385 1795.53 768.863ZM1846.59 771.128C1843.63 770.954 1841.19 770.779 1839.27 772.696C1841.19 774.613 1843.28 775.659 1846.07 775.485C1846.24 774.09 1846.42 773.045 1846.59 771.128Z" fill="black"/>
<path d="M2191.29 184.901C2194.6 184.378 2197.39 183.681 2200.17 183.332C2207.14 182.635 2212.9 185.249 2216.56 191.348C2220.21 197.448 2219.34 203.721 2215.68 209.646C2213.24 213.48 2209.76 216.442 2205.92 218.882C2197.73 224.11 2188.32 226.027 2178.91 227.247C2175.95 227.595 2173.16 226.55 2171.25 224.284C2164.1 215.223 2157.65 205.812 2156.78 193.788C2156.61 191.348 2156.61 189.083 2156.96 186.643C2158 179.498 2161.66 174.27 2168.98 172.179C2175.78 170.262 2182.57 172.702 2187.28 178.801C2188.5 180.544 2189.72 182.461 2191.29 184.901Z" fill="black"/>
<path d="M2135.35 284.402C2131.34 284.577 2129.08 283.182 2128.03 280.568C2126.98 278.129 2127.51 275.515 2129.77 273.424C2130.82 272.552 2132.04 271.681 2133.26 271.158C2141.97 266.627 2148.42 259.831 2152.95 251.118C2153.65 249.724 2154.52 248.155 2155.39 246.761C2157.48 244.147 2160.27 243.45 2163.06 244.844C2166.02 246.238 2167.41 249.375 2166.54 252.512C2166.19 253.732 2165.85 254.777 2165.32 255.823C2159.92 266.802 2152.25 275.515 2141.62 281.614C2139.18 283.008 2136.74 283.705 2135.35 284.402Z" fill="black"/>
<path d="M1980.08 701.077C1978.86 691.144 1977.64 682.431 1976.6 673.195C1977.82 672.324 1979.21 671.104 1980.78 670.058C1998.55 657.337 2014.59 642.873 2030.45 628.06C2031.49 627.015 2032.54 625.969 2033.41 624.924C2036.37 620.916 2036.2 615.688 2033.06 612.377C2029.75 609.066 2025.04 608.717 2020.69 611.68C2018.94 612.899 2017.38 614.468 2015.81 615.862C2005.35 624.924 1995.24 634.334 1984.61 643.221C1977.82 648.798 1970.67 654.026 1963.35 658.905C1955.16 664.482 1946.1 668.316 1936.52 670.232C1924.67 672.498 1913.17 671.452 1903.06 664.133C1899.75 661.868 1896.78 658.905 1894.17 655.943C1888.59 649.146 1887.72 641.305 1891.03 633.114C1892.95 628.06 1896.09 623.878 1899.75 620.044C1903.93 615.862 1908.29 611.68 1912.82 607.846C1921.53 600.352 1930.42 593.033 1939.13 585.714C1964.57 563.931 1986.7 538.837 2007.97 512.872C2009.53 510.781 2011.1 508.515 2011.97 506.25C2013.72 502.242 2012.32 497.885 2009.01 495.445C2005.53 492.831 2001.34 493.006 1997.86 495.968C1996.64 497.014 1995.59 498.408 1994.37 499.628C1987.58 507.644 1980.95 515.66 1974.16 523.676C1956.91 543.891 1937.91 562.363 1917.52 579.441C1907.94 587.457 1898.7 595.647 1889.47 603.838C1887.72 605.406 1886.15 606.277 1883.71 606.277C1873.26 605.755 1862.8 605.406 1852.17 605.058C1851.65 605.058 1851.3 604.709 1850.26 604.361C1848.69 599.133 1848.34 593.73 1849.56 587.631C1851.3 587.457 1852.87 586.934 1854.44 586.934C1861.76 586.76 1869.25 586.76 1876.57 586.586C1882.84 586.411 1888.94 585.888 1895.04 585.191C1898.35 584.843 1901.66 583.797 1904.63 582.577C1912.29 579.615 1917.52 574.387 1919.61 566.371C1921.18 560.794 1922.05 555.218 1922.92 549.467C1924.49 536.92 1925.71 524.373 1925.36 511.652C1925.19 507.469 1924.84 503.113 1923.8 498.931C1921.7 490.217 1916.13 484.118 1907.94 480.981C1903.75 479.413 1899.22 478.542 1894.69 477.845C1889.29 477.147 1883.71 476.799 1878.31 476.625C1839.8 475.928 1801.46 475.579 1763.12 477.67C1757.2 478.019 1751.27 478.89 1745.52 480.633C1734.37 483.77 1727.92 491.611 1726.01 503.113C1724.96 509.038 1725.13 514.963 1725.48 520.888C1725.83 525.593 1726.01 530.298 1726.35 535.7C1724.79 535.178 1723.57 535.003 1722.69 534.48C1692.37 514.614 1665.71 491.263 1646.19 460.244C1644.97 458.501 1643.93 456.584 1642.88 454.667C1640.96 451.531 1639.74 448.568 1640.96 444.56C1642.18 440.029 1640.79 437.764 1636.61 435.15C1635.56 434.453 1634.34 434.278 1633.47 433.407C1632.6 432.536 1631.9 431.142 1631.03 429.748C1636.78 425.739 1638.7 419.989 1640.62 414.064C1644.8 400.123 1649.15 386.356 1653.51 372.415C1653.69 371.718 1654.21 371.195 1654.73 369.975C1656.13 370.149 1658.04 369.975 1659.26 370.672C1663.44 372.763 1667.98 374.854 1671.63 377.643C1676.69 381.651 1681.22 386.182 1685.58 391.061C1690.28 396.115 1694.64 401.517 1698.99 406.919C1714.16 425.739 1732.1 441.249 1753.02 453.273C1756.33 455.19 1759.12 457.107 1760.68 461.289C1762.25 465.646 1766.26 467.214 1770.62 466.517C1774.45 465.82 1777.06 463.032 1777.76 458.675C1777.94 457.281 1777.94 455.887 1778.11 454.319C1778.81 449.614 1779.85 444.909 1782.47 440.378C1784.04 439.855 1785.95 439.506 1787.69 438.984C1792.57 437.067 1794.67 432.187 1792.75 427.308C1792.05 425.565 1791.01 423.997 1789.79 422.429C1771.84 398.206 1766.26 370.672 1768.35 341.221C1769.4 327.977 1772.36 315.256 1778.28 303.406C1780.2 299.746 1779.85 296.087 1778.63 292.253C1777.24 287.722 1775.67 283.191 1774.8 278.486C1771.84 263.848 1773.75 249.384 1778.98 235.617C1789.61 207.735 1808.43 188.043 1836.66 177.761C1839.28 176.716 1842.07 176.019 1844.85 175.496C1848.86 174.625 1852.52 172.882 1855.48 169.919C1868.21 157.721 1883.71 151.273 1900.79 148.485C1920.31 145.348 1939.3 147.614 1957.6 155.281C1965.1 158.418 1972.07 162.6 1978.51 167.654C1980.26 169.048 1981.83 170.442 1983.74 171.488C1987.58 173.579 1992.11 173.056 1994.9 170.094C1997.86 166.957 1998.38 162.078 1995.59 158.244C1993.68 155.804 1991.41 153.713 1988.97 151.099C1989.67 146.219 1990.36 140.992 1991.24 135.764C1992.8 126.528 1995.24 117.64 1998.55 108.927C2000.65 103.525 2003.09 98.471 2006.92 93.9402C2015.11 84.1814 2024 84.1814 2031.84 94.2887C2034.63 97.774 2036.72 101.956 2038.46 106.139C2041.6 112.935 2043.34 120.08 2044.73 127.399C2048.05 143.083 2049.44 158.941 2049.96 174.973C2049.96 175.844 2049.79 176.89 2049.79 178.284C2048.57 178.633 2047.17 178.981 2045.95 179.504C2039.33 181.769 2037.07 187.869 2040.9 193.619C2042.12 195.536 2044.04 197.279 2045.61 199.022C2057.28 211.22 2066.34 225.161 2071.75 241.368C2079.59 264.893 2079.24 288.245 2069.31 311.248C2066.87 316.65 2066.52 321.704 2069.13 327.106C2077.15 343.312 2077.32 360.216 2073.84 377.468C2070 396.463 2061.81 413.541 2051.18 429.748C2049.79 431.664 2048.39 433.581 2047.35 435.673C2046.48 437.241 2045.78 439.158 2045.78 441.075C2045.43 448.045 2052.4 452.402 2058.68 449.439C2060.42 448.568 2061.81 447.348 2063.73 445.954C2064.6 446.826 2065.82 447.523 2066.52 448.742C2083.6 472.094 2090.22 497.885 2085.16 526.464C2084.99 527.336 2084.82 528.381 2084.64 529.253C2083.07 535.178 2084.99 540.057 2089.52 543.891C2103.11 555.392 2109.91 570.553 2113.4 587.631C2118.1 612.028 2115.31 635.554 2106.77 658.731C2105.9 661.171 2104.68 663.61 2103.98 666.05C2102.94 669.361 2103.11 672.672 2105.03 675.635C2116.88 694.804 2117.23 715.367 2112.18 736.453C2107.3 756.842 2097.36 774.617 2082.03 789.081C2072.27 798.317 2061.29 805.113 2047.87 807.727C2036.89 809.992 2026.44 808.773 2016.85 802.848C2013.54 800.756 2010.23 799.362 2006.22 798.84C1991.06 797.271 1979.39 789.429 1970.5 777.405C1966.66 772.177 1963.88 766.252 1961.96 760.153C1961.44 758.41 1960.91 756.493 1960.91 754.576C1960.74 751.265 1960.57 747.954 1960.74 744.643C1960.91 742.378 1961.26 739.938 1962.13 737.673C1963.18 735.059 1966.84 734.536 1968.76 736.627C1970.15 738.196 1971.02 740.287 1971.72 742.204C1972.59 744.643 1973.11 747.257 1973.98 749.697C1975.38 753.705 1977.64 755.273 1981.65 754.402C1987.23 753.182 1992.8 751.614 1997.86 749C2000.99 747.257 2002.39 744.818 2002.21 741.507C2001.52 725.997 1996.64 712.579 1983.57 702.994C1981.48 702.123 1980.61 701.426 1980.08 701.077ZM1902.71 264.719C1886.68 264.719 1869.25 270.296 1854.26 282.494C1832.48 300.269 1824.12 333.031 1847.64 359.868C1853.39 366.49 1860.19 371.543 1868.03 375.377C1893.3 387.401 1918.57 387.576 1944.01 375.551C1953.42 371.195 1961.44 364.573 1967.71 356.382C1982.35 337.213 1982.52 312.642 1968.06 293.299C1962.66 285.98 1955.69 280.055 1947.67 275.524C1934.77 268.03 1920.83 264.719 1902.71 264.719ZM2014.94 315.779C2016.5 315.779 2017.38 315.604 2018.42 315.604C2031.49 314.21 2039.16 301.663 2035.5 290.336C2031.49 277.963 2019.12 272.038 2009.53 272.91C1993.15 274.304 1985.14 291.033 1994.37 304.626C1999.43 311.945 2006.57 315.43 2014.94 315.779ZM1809.65 308.285C1821.5 308.285 1830.39 302.535 1833.87 293.821C1839.1 280.926 1830.56 267.159 1816.62 266.636C1807.56 266.288 1800.42 270.121 1795.54 277.789C1791.35 284.237 1790.66 291.207 1794.32 298.178C1797.98 305.149 1804.25 308.111 1809.65 308.285Z" fill="white"/>
<path d="M1943.49 769.391C1946.62 775.141 1949.59 780.892 1952.9 786.294C1956.38 792.045 1960.91 797.099 1966.14 801.281C1971.2 805.289 1976.6 808.6 1982 812.434C1982.35 813.654 1981.13 814.177 1980.26 814.874C1979.21 815.745 1977.99 816.616 1976.77 817.313C1958.13 830.209 1938.43 841.71 1918.22 851.818C1904.8 858.614 1890.86 864.19 1876.05 867.327C1868.03 869.07 1860.02 869.767 1851.82 868.373C1835.97 865.585 1822.03 851.992 1819.06 836.308C1817.67 828.466 1819.41 821.67 1825.34 816.093C1828.82 812.782 1832.83 810.168 1837.19 808.252C1841.72 806.335 1846.42 804.418 1851.13 802.849C1881.28 793.091 1911.25 782.635 1940.35 770.088C1941.4 769.913 1942.44 769.739 1943.49 769.391Z" fill="white"/>
<path d="M1907.94 687.833C1913.16 688.704 1917.35 689.575 1921.36 690.273C1922.92 692.538 1922.23 694.803 1921.7 696.72C1919.61 707.002 1915.26 716.238 1908.29 724.08C1906.89 725.648 1905.5 727.391 1903.75 728.611C1886.5 743.249 1867.51 753.879 1845.03 758.061C1819.06 762.766 1794.66 758.41 1771.84 745.689C1765.04 741.855 1758.24 737.498 1752.14 732.793C1737.85 721.989 1729.84 707.525 1728.44 689.575C1728.1 684.173 1727.4 678.597 1727.75 673.195C1728.44 656.814 1729.49 640.259 1730.54 623.878C1730.54 623.006 1730.88 621.961 1731.06 621.09C1733.32 619.173 1736.11 619.521 1738.73 619.521C1753.02 618.824 1767.31 618.127 1781.6 617.778C1810.52 616.907 1839.28 616.907 1868.2 617.778C1870.64 617.778 1872.91 617.953 1875.7 618.127C1875.35 622.309 1873.08 625.446 1871.52 629.106C1869.08 629.106 1866.81 629.106 1864.37 629.106C1835.44 629.106 1806.69 629.106 1777.76 629.28C1771.31 629.28 1764.87 629.803 1758.42 630.5C1748.14 631.72 1743.78 636.425 1743.08 646.881C1742.73 653.328 1742.73 659.776 1742.73 666.224C1742.91 675.809 1743.26 685.393 1743.61 694.803C1743.78 698.289 1744.13 701.948 1744.48 705.433C1745.17 712.23 1749.18 716.238 1755.63 717.632C1759.99 718.503 1764.52 719.026 1769.05 719.026C1778.63 719.375 1788.22 719.375 1797.63 719.375C1824.64 719.375 1851.48 719.375 1878.49 719.026C1883.71 719.026 1888.94 718.678 1894.17 717.806C1902.19 716.586 1905.67 712.753 1907.07 704.736C1907.59 701.774 1907.59 698.637 1907.76 695.5C1907.76 693.235 1907.94 690.795 1907.94 687.833Z" fill="white"/>
<path d="M1725.65 723.898C1731.05 729.475 1735.76 735.226 1741.16 740.105C1746.39 744.81 1752.49 748.644 1758.41 753.175C1753.19 766.07 1749.35 779.14 1747.96 793.256C1746.74 793.778 1745.87 794.65 1744.65 794.824C1730.88 798.309 1716.94 801.795 1702.65 803.189C1695.68 803.886 1688.71 803.711 1681.91 802.492C1667.1 799.703 1655.42 792.036 1647.93 778.792C1645.32 774.087 1643.92 769.207 1643.92 763.805C1643.92 756.834 1646.71 751.432 1651.94 746.901C1655.6 743.765 1659.95 741.673 1664.49 740.105C1671.11 738.014 1677.73 736.271 1684.35 734.529C1697.25 731.043 1710.14 727.732 1723.04 724.421C1724.26 724.073 1725.13 723.898 1725.65 723.898Z" fill="white"/>
<path d="M1868.9 638.681C1872.74 663.078 1876.05 668.306 1897.83 683.99C1898.53 690.438 1898 697.06 1897.66 703.682C1897.48 706.296 1895.91 708.213 1893.3 708.561C1890.34 709.084 1887.2 709.607 1884.06 709.607C1866.46 709.781 1848.69 709.781 1831.09 709.781C1827.43 709.781 1823.94 709.781 1820.28 709.781C1802.33 709.781 1784.56 709.781 1766.61 709.607C1763.47 709.607 1760.51 709.084 1757.37 708.561C1754.93 708.213 1753.71 706.47 1753.37 704.03C1753.19 703.159 1753.02 702.114 1753.02 701.242C1752.67 685.21 1752.15 669.352 1751.8 653.32C1751.8 650.706 1752.15 648.092 1752.49 645.478C1752.84 642.515 1754.59 640.773 1757.55 640.424C1760.68 640.075 1763.65 639.553 1766.78 639.378C1786.82 639.03 1806.86 638.681 1826.9 638.507C1838.06 638.333 1849.38 638.507 1860.54 638.507C1863.33 638.333 1865.94 638.507 1868.9 638.681ZM1826.38 657.153C1822.2 655.062 1818.54 652.797 1814.53 651.403C1807.56 648.963 1800.77 649.486 1795.19 654.888C1789.61 660.29 1788.04 667.087 1790.14 674.58C1791.53 679.459 1794.32 683.642 1797.98 687.127C1804.95 693.749 1813.31 697.583 1822.72 699.325C1824.99 699.674 1827.43 699.674 1829.87 699.325C1838.75 697.757 1846.6 693.923 1853.39 687.824C1857.4 684.339 1860.36 679.982 1861.93 674.928C1864.37 667.435 1862.8 660.639 1857.23 655.062C1851.82 649.486 1845.03 649.137 1837.88 651.054C1836.49 651.403 1835.27 652.1 1833.88 652.623C1831.61 654.191 1829.17 655.585 1826.38 657.153Z" fill="white"/>
<path d="M1826.38 488.289C1841.37 488.463 1860.01 488.638 1878.49 488.986C1883.89 489.16 1889.46 489.857 1894.87 490.206C1896.09 490.38 1897.31 490.554 1898.35 490.903C1907.41 493.168 1911.25 497.525 1911.94 506.761C1912.29 511.118 1912.29 515.3 1911.94 519.657C1911.07 530.984 1910.03 542.485 1908.98 553.812C1908.81 556.426 1907.94 559.04 1907.41 561.48C1906.19 566.185 1903.06 569.496 1898.35 570.89C1895.21 571.762 1891.9 572.459 1888.59 572.982C1887.2 573.33 1885.8 573.33 1884.24 573.33C1854.26 573.853 1824.11 575.77 1794.14 574.376C1783.34 573.853 1772.71 573.853 1761.9 573.33C1758.59 573.156 1755.28 572.459 1752.14 571.587C1747.26 570.193 1743.78 567.057 1742.56 562.003C1741.86 559.04 1740.82 556.078 1740.64 552.941C1739.42 539.697 1738.2 526.279 1737.33 513.035C1737.16 509.724 1737.68 506.413 1738.2 503.102C1739.25 497.699 1742.56 494.04 1747.79 492.471C1751.62 491.252 1755.63 490.38 1759.64 490.206C1769.92 489.509 1780.2 489.16 1790.31 488.812C1801.29 488.463 1812.09 488.463 1826.38 488.289ZM1826.38 498.745C1826.38 498.571 1826.38 498.396 1826.38 498.222C1810.17 498.396 1793.97 498.571 1777.76 498.919C1773.4 498.919 1769.22 499.442 1765.04 499.965C1757.89 501.01 1753.54 505.367 1751.97 512.338C1751.1 516.346 1750.75 520.354 1750.75 524.362C1750.92 531.681 1751.8 539.174 1752.32 546.493C1752.49 548.585 1752.84 550.676 1753.19 552.941C1754.23 558.692 1757.55 562.351 1763.12 564.094C1765.56 564.791 1768.18 565.488 1770.79 565.837C1777.24 566.534 1783.69 567.231 1789.96 567.405C1812.09 568.102 1834.22 568.276 1856.53 567.231C1865.59 566.882 1874.65 565.837 1883.54 564.443C1892.25 563.048 1895.91 559.04 1897.13 550.327C1898.53 540.22 1899.57 529.938 1898.87 519.657C1898.7 516.346 1898.18 513.035 1897.13 509.898C1895.56 504.67 1892.08 501.185 1886.85 499.965C1883.36 499.268 1879.71 498.745 1876.22 498.745C1859.84 498.745 1843.11 498.745 1826.38 498.745Z" fill="white"/>
<path d="M1862.8 139.946C1855.65 145.348 1849.21 150.227 1842.76 155.107C1841.71 155.978 1840.32 156.501 1838.92 156.849C1829.34 159.289 1820.28 162.774 1811.74 167.654C1811.04 168.002 1810 168.177 1808.95 168.351C1808.78 167.131 1808.6 166.085 1808.6 165.214C1808.78 148.659 1809.82 132.278 1813.31 116.072C1814.35 111.018 1815.92 105.964 1817.66 101.085C1818.71 98.1224 1820.28 95.3342 1822.02 92.8945C1826.73 86.2724 1832.82 85.5753 1839.27 90.4547C1841.19 91.8489 1842.93 93.5915 1844.33 95.5084C1846.24 97.9481 1848.16 100.562 1849.55 103.176C1856 114.852 1860.01 127.225 1862.8 139.946Z" fill="white"/>
<path d="M1629.98 327.098C1636.43 326.401 1641.31 328.667 1646.19 330.235C1648.1 330.932 1649.15 332.675 1648.98 334.766C1648.63 337.903 1648.28 340.865 1647.58 344.002C1643.4 361.08 1638.87 378.158 1633.47 394.887C1631.38 400.987 1629.28 407.086 1627.37 413.185C1626.67 415.451 1625.62 417.542 1623.53 418.936C1622.14 419.807 1620.92 421.027 1619.87 422.421C1614.82 428.52 1615.52 435.665 1621.44 440.893C1623.19 442.461 1625.28 443.681 1627.02 444.901C1627.19 446.818 1626.67 448.038 1624.75 447.864C1622.84 447.689 1620.92 447.341 1619.18 446.818C1612.21 445.075 1605.41 443.159 1598.44 441.242C1596.35 440.719 1594.43 439.848 1592.51 438.802C1592.17 438.628 1591.99 437.582 1592.17 436.885C1592.17 436.537 1592.69 436.014 1593.04 435.839C1593.91 435.665 1594.95 435.665 1595.83 435.491C1597.92 435.142 1600.18 434.968 1602.1 434.271C1607.85 432.354 1610.99 427.649 1610.46 421.55C1610.29 419.459 1609.77 417.193 1609.07 415.276C1608.02 412.662 1608.02 410.223 1608.55 407.609C1612.9 385.477 1617.96 363.345 1624.4 341.562C1625.28 338.774 1625.97 336.16 1627.02 333.372C1627.72 331.455 1628.94 329.364 1629.98 327.098ZM1644.27 339.82C1644.27 338.948 1644.27 338.426 1644.27 338.077C1644.27 336.509 1643.05 335.115 1641.83 335.115C1640.26 335.115 1639.04 335.812 1638.52 337.38C1638.17 338.426 1637.82 339.646 1637.65 340.865C1633.12 360.906 1627.89 380.772 1621.44 400.115C1621.09 401.161 1620.75 402.381 1620.57 403.601C1620.4 405.169 1620.75 406.563 1622.49 407.086C1624.06 407.609 1625.45 407.086 1626.15 405.692C1627.02 403.775 1627.72 401.684 1628.41 399.767C1634.34 381.643 1639.04 363.171 1643.4 344.525C1643.92 342.782 1644.1 341.214 1644.27 339.82ZM1632.94 346.093C1633.12 343.654 1632.07 341.911 1630.5 341.737C1628.94 341.562 1627.72 342.434 1627.19 344.002C1626.5 345.919 1625.8 348.01 1625.28 350.101C1620.75 367.876 1616.21 385.477 1611.51 403.252C1611.16 404.472 1610.99 405.517 1610.99 406.737C1610.99 408.306 1611.34 409.7 1613.08 410.048C1614.65 410.397 1616.04 409.874 1616.56 408.306C1617.43 406.389 1617.96 404.298 1618.48 402.206C1623.19 384.257 1627.72 366.308 1632.42 348.359C1632.6 347.487 1632.77 346.616 1632.94 346.093Z" fill="white"/>
<path d="M1720.25 846.595C1719.9 837.708 1718.85 829.343 1719.73 821.152C1728.96 818.364 1763.64 818.19 1773.4 820.63C1774.79 827.775 1773.75 839.45 1771.31 844.852C1761.72 847.118 1728.96 848.338 1720.25 846.595Z" fill="white"/>
<path d="M1585.72 547.728C1583.28 547.205 1580.66 546.508 1577.88 545.811C1576.13 542.674 1576.31 539.189 1575.78 536.052C1575.44 533.787 1575.96 531.87 1577.35 529.953C1577.7 529.605 1577.88 529.082 1578.22 528.733C1583.1 522.982 1585.37 516.012 1587.29 508.693C1591.29 493.009 1595.82 477.325 1600.01 461.816C1600.53 459.724 1601.23 457.808 1601.92 455.891C1605.06 455.368 1607.33 456.588 1610.11 457.633C1609.77 459.376 1609.59 460.77 1609.24 461.99C1604.36 480.462 1599.66 498.934 1594.78 517.406C1593.91 520.891 1593.38 524.377 1593.91 528.036C1594.6 538.666 1594.43 539.015 1585.72 547.728Z" fill="white"/>
<path d="M1947.32 747.778C1944.53 748.3 1942.44 748.475 1940.52 748.823C1938.43 742.201 1938.43 734.708 1940.35 726.866C1941.22 723.032 1942.79 719.547 1945.05 716.584C1951.15 708.394 1960.56 705.954 1969.8 709.788C1981.12 714.493 1988.27 725.82 1987.92 738.89C1987.22 739.239 1986.35 739.587 1985.48 739.936C1985.13 740.11 1984.61 739.936 1983.74 739.936C1983.04 738.193 1982.17 736.276 1981.3 734.359C1979.9 731.048 1977.81 728.086 1974.85 725.82C1967.36 720.07 1956.9 721.638 1951.5 729.306C1949.23 732.442 1948.01 736.102 1947.67 739.936C1947.49 742.376 1947.49 744.815 1947.32 747.778Z" fill="white"/>
<path d="M1659.61 575.594C1661 582.913 1661.52 589.361 1660.65 595.808C1659.08 606.439 1652.11 613.409 1641.48 614.803C1630.15 616.372 1620.57 611.144 1616.04 600.688C1614.12 596.331 1612.38 591.975 1612.03 587.095C1612.9 586.572 1613.43 586.224 1614.12 586.05C1615.17 585.701 1616.39 585.527 1617.61 585.178C1618.13 585.875 1618.65 586.398 1619 586.921C1620.05 589.361 1620.74 591.975 1621.79 594.24C1624.75 600.165 1629.46 603.999 1636.43 603.65C1643.57 603.302 1648.45 599.294 1650.89 592.846C1651.94 590.058 1652.29 586.921 1652.63 583.784C1652.81 581.693 1652.63 579.602 1652.63 576.988C1654.9 576.465 1656.99 576.117 1659.61 575.594Z" fill="white"/>
<path d="M1802.68 604.181C1795.01 605.052 1773.4 605.575 1769.04 604.878C1767.82 598.953 1768.17 592.854 1770.09 587.277C1778.98 586.232 1796.75 586.58 1803.55 588.149C1804.77 593.202 1804.07 598.605 1802.68 604.181Z" fill="white"/>
<path d="M1816.45 603.843C1816.45 598.441 1816.45 593.561 1816.45 588.333C1822.72 586.765 1828.82 587.462 1835.27 587.81C1836.49 593.213 1836.14 598.441 1836.14 603.494C1831.61 604.714 1824.98 604.888 1816.45 603.843Z" fill="white"/>
<path d="M1696.03 652.799C1694.64 658.202 1693.24 663.429 1691.85 668.657C1686.8 669.703 1682.96 667.438 1678.61 665.695C1681.92 660.641 1685.23 655.762 1688.54 650.708C1690.98 650.36 1693.24 651.405 1696.03 652.799Z" fill="white"/>
<path d="M1951.33 696.535C1950.63 693.572 1949.93 691.133 1949.41 688.693C1954.12 684.336 1956.9 683.291 1964.4 682.594C1967.36 686.428 1966.66 690.784 1966.49 695.315C1961.26 695.664 1956.55 696.012 1951.33 696.535Z" fill="white"/>
<path d="M1666.4 658.553C1662.74 656.287 1659.96 653.847 1657.52 650.362C1659.61 648.619 1661.7 647.225 1663.61 645.483C1665.53 643.74 1667.45 641.997 1669.54 639.906C1671.81 641.475 1673.9 642.869 1676.16 644.437C1674.94 650.536 1671.46 654.719 1666.4 658.553Z" fill="white"/>
<path d="M1643.92 627.354C1648.28 625.785 1652.29 624.217 1656.64 622.648C1659.26 624.043 1659.95 626.831 1661.7 629.445C1658.56 633.453 1655.42 637.287 1650.72 639.204C1646.71 635.893 1645.66 634.15 1643.92 627.354Z" fill="white"/>
<path d="M1714.67 670.229C1711.36 671.275 1708.05 671.624 1704.57 670.404C1705.44 664.653 1707.18 659.251 1708.92 653.849C1710.14 653.674 1711.36 653.5 1712.58 653.5C1713.45 653.5 1714.33 653.849 1715.55 654.023C1715.72 659.599 1715.72 664.827 1714.67 670.229Z" fill="white"/>
<path d="M1782.81 765.376C1781.94 767.815 1781.24 769.907 1780.37 772.172C1775.32 771.824 1770.78 771.301 1766.25 769.035C1766.6 765.55 1767.82 762.587 1769.74 759.625C1774.27 760.845 1778.45 762.936 1782.81 765.376Z" fill="white"/>
<path d="M1760.5 798.484C1765.38 799.181 1769.56 799.704 1773.57 800.227C1774.79 802.492 1774.44 804.409 1773.57 806.849C1769.39 807.372 1765.21 806.849 1760.85 806.5C1759.63 803.887 1759.98 801.621 1760.5 798.484Z" fill="white"/>
<path d="M1859.14 771.311C1860.53 769.219 1860.88 767.651 1861.92 767.128C1865.41 765.734 1868.9 764.514 1872.56 763.469C1873.95 765.908 1873.43 767.825 1872.73 770.265C1868.72 771.136 1864.71 772.182 1859.14 771.311Z" fill="white"/>
<path d="M1773.93 787.849C1770.61 787.326 1767.65 786.978 1764.52 786.455C1763.99 786.455 1763.47 786.281 1763.3 785.932C1762.77 785.235 1762.08 784.364 1762.25 783.667C1762.42 782.97 1763.64 782.098 1764.17 782.273C1768 782.795 1771.66 783.667 1775.32 784.364C1775.49 784.364 1775.84 784.538 1775.84 784.712C1776.02 785.061 1776.37 785.584 1776.37 785.932C1776.37 786.281 1776.02 786.978 1775.67 787.152C1775.32 787.5 1774.62 787.675 1773.93 787.849Z" fill="white"/>
<path d="M1795.53 768.852C1797.8 769.374 1799.71 769.723 1801.98 770.246C1799.89 773.382 1799.89 773.382 1793.79 776.171C1793.27 773.382 1793.27 773.382 1795.53 768.852Z" fill="white"/>
<path d="M1846.59 771.128C1846.42 773.045 1846.24 774.09 1846.07 775.659C1843.11 775.833 1841.19 774.787 1839.27 772.871C1841.36 770.779 1843.63 770.954 1846.59 771.128Z" fill="white"/>
<path d="M1902.71 264.719C1920.83 264.719 1934.77 268.03 1947.67 275.523C1955.68 280.054 1962.48 285.979 1968.06 293.298C1982.34 312.641 1982.34 337.213 1967.71 356.382C1961.43 364.746 1953.42 371.194 1944.01 375.551C1918.74 387.401 1893.3 387.401 1868.03 375.377C1860.19 371.717 1853.39 366.489 1847.64 359.867C1824.11 333.03 1832.48 300.269 1854.26 282.494C1869.25 270.121 1886.67 264.719 1902.71 264.719ZM1906.19 280.751C1904.8 280.751 1903.4 280.751 1901.83 280.751C1900.61 280.751 1899.39 280.751 1898.18 280.925C1882.49 282.842 1868.72 288.593 1858.27 300.966C1847.29 313.861 1846.42 330.591 1855.83 344.706C1860.36 351.328 1866.28 356.556 1873.43 360.216C1894.69 371.02 1915.95 371.194 1937.38 360.738C1943.83 357.602 1949.41 353.071 1953.94 347.32C1965.09 333.379 1965.09 315.778 1954.11 301.837C1949.76 296.261 1944.36 291.904 1938.26 288.593C1928.5 283.191 1917.69 280.577 1906.19 280.751Z" fill="black"/>
<path d="M2014.93 315.774C2006.56 315.599 1999.25 311.94 1994.37 304.446C1985.3 290.854 1993.32 274.124 2009.53 272.73C2019.11 271.859 2031.48 277.958 2035.49 290.157C2039.15 301.484 2031.48 314.205 2018.41 315.425C2017.54 315.599 2016.5 315.599 2014.93 315.774Z" fill="black"/>
<path d="M1809.65 308.28C1804.25 308.106 1798.15 305.143 1794.32 298.173C1790.48 291.202 1791.36 284.231 1795.54 277.784C1800.42 270.29 1807.56 266.456 1816.62 266.631C1830.56 267.153 1839.28 280.746 1833.88 293.816C1830.39 302.529 1821.5 308.454 1809.65 308.28Z" fill="black"/>
<path d="M1826.38 657.158C1828.99 655.59 1831.6 654.196 1834.04 652.802C1835.26 652.104 1836.66 651.582 1838.05 651.233C1845.2 649.316 1851.82 649.665 1857.4 655.241C1862.97 660.818 1864.37 667.44 1862.1 675.107C1860.53 680.335 1857.57 684.518 1853.56 688.003C1846.77 693.928 1838.92 697.762 1830.04 699.504C1827.77 699.853 1825.33 700.027 1822.89 699.504C1813.48 697.762 1805.29 693.754 1798.15 687.306C1794.49 683.821 1791.7 679.638 1790.3 674.759C1788.04 667.265 1789.61 660.469 1795.36 655.067C1800.93 649.665 1807.73 649.142 1814.7 651.582C1818.53 652.802 1822.19 655.067 1826.38 657.158ZM1825.85 691.14C1836.48 689.397 1845.55 685.389 1851.82 676.327C1852.86 674.759 1853.56 672.842 1853.91 671.099C1855.65 663.954 1850.43 658.204 1843.11 659.075C1839.45 659.598 1836.31 661.34 1833.35 663.432C1831.95 664.303 1830.73 665.523 1829.34 666.394C1827.07 667.788 1824.81 667.788 1822.72 666.394C1821.15 665.349 1819.75 663.954 1818.19 662.909C1815.05 660.818 1811.56 658.901 1807.56 658.901C1803.2 658.901 1799.89 661.34 1798.49 665.523C1797.27 669.531 1798.32 673.19 1800.59 676.327C1806.68 685.389 1815.75 689.049 1825.85 691.14Z" fill="black"/>
<path d="M1826.38 498.749C1843.11 498.749 1859.84 498.749 1876.39 498.749C1879.88 498.749 1883.54 499.272 1887.02 499.969C1892.43 501.189 1895.91 504.674 1897.31 509.902C1898.18 513.039 1898.87 516.35 1899.05 519.661C1899.57 529.943 1898.7 540.224 1897.31 550.332C1896.09 559.045 1892.43 563.053 1883.71 564.447C1874.83 565.841 1865.76 566.712 1856.7 567.235C1834.57 568.281 1812.44 568.107 1790.13 567.409C1783.69 567.235 1777.24 566.538 1770.96 565.841C1768.35 565.493 1765.74 564.97 1763.3 564.098C1757.89 562.356 1754.41 558.696 1753.36 552.946C1753.02 550.854 1752.67 548.763 1752.49 546.498C1751.8 539.179 1751.1 531.86 1750.92 524.366C1750.75 520.358 1751.27 516.176 1752.14 512.342C1753.54 505.371 1757.89 500.841 1765.21 499.969C1769.4 499.446 1773.75 498.924 1777.93 498.924C1794.14 498.575 1810.35 498.401 1826.55 498.227C1826.38 498.401 1826.38 498.575 1826.38 498.749ZM1825.51 507.463C1807.39 507.985 1789.44 508.334 1771.66 508.857C1762.77 509.205 1760.86 511.122 1760.33 520.01C1759.81 529.768 1761.21 539.527 1762.25 549.286C1762.77 553.12 1764.87 555.385 1768.52 555.908C1773.06 556.605 1777.59 557.128 1781.94 557.476C1809.3 559.045 1836.84 558.871 1864.2 557.476C1870.12 557.128 1876.05 556.082 1881.97 555.385C1885.46 554.862 1887.37 552.771 1887.72 549.112C1888.24 540.05 1888.94 530.988 1889.46 521.926C1889.64 519.661 1889.12 517.221 1888.77 514.782C1888.07 511.296 1886.15 509.205 1882.49 508.857C1879.36 508.682 1876.22 508.334 1873.26 508.334C1857.4 507.985 1841.37 507.811 1825.51 507.463Z" fill="black"/>
<path d="M1644.27 339.817C1644.1 341.037 1643.75 342.779 1643.4 344.348C1639.04 362.82 1634.16 381.466 1628.41 399.59C1627.72 401.681 1627.02 403.598 1626.15 405.515C1625.45 406.909 1624.06 407.431 1622.49 406.909C1620.92 406.386 1620.4 404.992 1620.57 403.423C1620.75 402.204 1621.09 401.158 1621.44 399.938C1627.89 380.42 1632.94 360.554 1637.65 340.688C1638 339.468 1638.17 338.423 1638.52 337.203C1639.04 335.635 1640.09 334.938 1641.83 334.938C1643.23 334.938 1644.27 336.332 1644.27 337.9C1644.45 338.597 1644.27 339.12 1644.27 339.817Z" fill="black"/>
<path d="M1632.95 346.099C1632.77 346.622 1632.77 347.493 1632.42 348.364C1627.89 366.313 1623.19 384.263 1618.48 402.212C1617.96 404.303 1617.26 406.394 1616.56 408.311C1616.04 409.705 1614.65 410.402 1613.08 410.054C1611.34 409.705 1610.99 408.311 1610.99 406.743C1610.99 405.523 1611.34 404.303 1611.51 403.258C1616.04 385.483 1620.57 367.882 1625.28 350.107C1625.8 348.016 1626.5 345.925 1627.19 344.008C1627.72 342.614 1628.94 341.742 1630.51 341.742C1632.07 341.916 1633.12 343.659 1632.95 346.099Z" fill="black"/>
<path d="M1906.19 280.75C1917.69 280.576 1928.5 283.19 1938.43 288.592C1944.53 291.903 1949.93 296.26 1954.29 301.836C1965.27 315.952 1965.27 333.378 1954.11 347.319C1949.58 353.07 1944.01 357.601 1937.56 360.738C1916.12 371.019 1894.69 371.019 1873.6 360.215C1866.46 356.555 1860.53 351.502 1856 344.705C1846.42 330.764 1847.46 314.035 1858.44 300.965C1868.9 288.592 1882.67 282.842 1898.35 280.925C1899.57 280.75 1900.79 280.75 1902.01 280.75C1903.4 280.75 1904.8 280.75 1906.19 280.75ZM1876.04 333.03C1876.74 336.515 1877.26 339.477 1878.14 342.44C1880.23 349.759 1884.76 354.987 1892.25 357.427C1900.79 360.215 1913.16 359.344 1920.83 348.539C1922.57 346.099 1923.79 343.137 1925.19 340.349C1926.06 338.606 1926.58 336.863 1927.1 335.469C1930.94 333.901 1934.25 332.681 1937.39 330.939C1939.13 329.893 1940.87 328.499 1942.09 326.756C1943.66 324.665 1943.66 322.4 1942.26 320.134C1940.87 318.043 1938.43 316.997 1935.99 317.694C1934.42 318.043 1932.85 318.914 1931.46 319.786C1924.14 323.968 1916.82 323.445 1909.68 319.786C1908.81 319.437 1907.93 318.914 1906.71 318.217C1908.63 316.823 1909.68 316.126 1910.55 315.429C1911.77 314.558 1912.99 313.861 1914.03 312.989C1916.47 310.724 1917 307.239 1915.6 304.45C1914.03 301.662 1910.9 300.268 1907.59 301.139C1906.02 301.488 1904.62 302.533 1903.06 303.23C1901.31 303.928 1899.74 304.799 1898.18 305.496C1895.04 303.928 1892.25 302.359 1889.46 301.314C1886.33 300.268 1883.19 301.836 1881.45 304.625C1880.05 307.239 1880.23 310.201 1882.32 312.466C1883.19 313.512 1884.58 314.209 1885.63 315.08C1886.5 315.778 1887.2 316.649 1888.24 317.52C1883.36 320.831 1878.83 320.483 1874.3 318.566C1872.73 317.869 1871.34 316.997 1869.77 316.649C1867.33 316.126 1865.07 316.649 1863.5 318.914C1861.93 321.005 1861.93 324.142 1863.85 326.233C1865.07 327.627 1866.63 328.847 1868.38 329.719C1870.64 331.113 1873.26 331.984 1876.04 333.03Z" fill="white"/>
<path d="M1825.86 691.135C1815.75 689.044 1806.69 685.384 1800.59 676.497C1798.33 673.36 1797.28 669.7 1798.5 665.692C1799.89 661.51 1803.2 659.07 1807.56 659.07C1811.57 659.07 1814.88 660.813 1818.19 663.078C1819.76 664.124 1821.15 665.518 1822.72 666.564C1824.81 667.958 1827.25 668.132 1829.34 666.564C1830.74 665.692 1831.96 664.472 1833.35 663.601C1836.31 661.51 1839.45 659.767 1843.11 659.245C1850.43 658.373 1855.66 664.124 1853.92 671.269C1853.57 673.011 1852.87 674.928 1851.82 676.497C1845.55 685.384 1836.49 689.392 1825.86 691.135Z" fill="white"/>
<path d="M1825.5 507.453C1841.36 507.627 1857.22 507.976 1873.25 508.15C1876.39 508.15 1879.53 508.499 1882.49 508.673C1886.15 509.022 1888.06 511.113 1888.76 514.598C1889.11 516.863 1889.63 519.303 1889.46 521.743C1888.94 530.805 1888.24 539.866 1887.72 548.928C1887.54 552.588 1885.62 554.679 1881.96 555.202C1876.04 556.073 1870.11 556.944 1864.19 557.293C1836.83 558.861 1809.3 559.035 1781.94 557.293C1777.41 556.944 1772.88 556.421 1768.52 555.724C1764.68 555.202 1762.59 553.11 1762.25 549.102C1761.2 539.343 1759.81 529.759 1760.33 519.826C1760.85 510.938 1762.77 509.022 1771.66 508.673C1789.6 508.324 1807.55 507.976 1825.5 507.453ZM1841.71 531.153C1841.36 540.563 1848.51 548.405 1857.57 548.754C1866.28 549.102 1874.12 541.783 1874.3 532.721C1874.3 521.917 1865.93 515.818 1858.61 515.644C1849.38 515.295 1842.06 521.917 1841.71 531.153ZM1810.52 531.676C1810.34 522.44 1803.37 515.469 1794.14 515.644C1785.25 515.818 1777.93 523.137 1777.93 532.199C1777.93 541.26 1785.25 548.754 1794.14 548.754C1803.37 548.754 1810.69 541.086 1810.52 531.676ZM1826.37 548.231C1829.34 547.882 1832.65 547.534 1835.26 545.094C1836.83 543.7 1837.18 541.435 1836.31 540.041C1835.44 538.646 1833.69 537.949 1831.95 538.821C1827.94 540.912 1824.28 540.738 1820.45 538.646C1818.53 537.601 1816.44 538.646 1815.74 540.389C1815.05 541.783 1815.57 543.7 1816.96 544.92C1819.4 547.36 1822.54 547.882 1826.37 548.231Z" fill="white"/>
<path d="M1876.04 333.023C1873.26 331.803 1870.82 330.932 1868.55 329.712C1866.98 328.841 1865.41 327.621 1864.02 326.227C1862.1 324.136 1862.1 321.173 1863.67 318.908C1865.24 316.642 1867.5 316.12 1869.94 316.642C1871.51 316.991 1872.91 317.862 1874.48 318.559C1879.18 320.476 1883.71 320.825 1888.42 317.514C1887.37 316.642 1886.67 315.771 1885.8 315.074C1884.76 314.203 1883.54 313.331 1882.49 312.46C1880.4 310.195 1880.05 307.058 1881.62 304.618C1883.19 301.83 1886.5 300.262 1889.64 301.307C1892.6 302.353 1895.21 303.921 1898.35 305.49C1899.92 304.792 1901.49 303.921 1903.23 303.224C1904.8 302.527 1906.19 301.656 1907.76 301.133C1911.07 300.262 1914.21 301.656 1915.78 304.444C1917.34 307.232 1916.82 310.543 1914.21 312.983C1913.16 314.028 1911.94 314.726 1910.72 315.423C1909.85 316.12 1908.81 316.817 1906.89 318.211C1908.11 318.908 1908.98 319.256 1909.85 319.779C1917.17 323.439 1924.32 323.962 1931.63 319.779C1933.03 318.908 1934.6 318.211 1936.17 317.688C1938.6 316.991 1941.04 318.037 1942.44 320.128C1943.83 322.393 1944.01 324.833 1942.26 326.75C1940.87 328.318 1939.3 329.887 1937.56 330.932C1934.42 332.675 1931.11 333.895 1927.28 335.463C1926.75 336.857 1926.06 338.6 1925.36 340.342C1923.97 343.131 1922.75 345.919 1921 348.533C1913.34 359.337 1900.96 360.209 1892.42 357.42C1885.11 354.981 1880.57 349.753 1878.31 342.434C1877.09 339.471 1876.74 336.509 1876.04 333.023ZM1897.3 327.795C1894.69 329.189 1892.08 330.758 1889.64 331.978C1888.77 335.114 1889.64 337.554 1890.68 339.994C1891.9 343.131 1894.17 345.048 1897.48 345.745C1905.15 347.313 1910.9 343.479 1912.81 335.114C1907.93 332.849 1902.88 330.409 1897.3 327.795Z" fill="black"/>
<path d="M1841.71 531.163C1842.06 521.927 1849.38 515.305 1858.62 515.654C1865.93 515.828 1874.3 522.102 1874.3 532.732C1874.3 541.793 1866.46 549.113 1857.57 548.764C1848.51 548.415 1841.36 540.574 1841.71 531.163ZM1866.46 532.209C1866.46 526.981 1862.45 522.973 1857.4 523.147C1852.86 523.321 1849.03 527.504 1849.2 532.209C1849.38 536.914 1853.39 540.922 1857.92 540.922C1862.8 540.922 1866.46 537.263 1866.46 532.209Z" fill="black"/>
<path d="M1810.52 531.692C1810.7 541.102 1803.38 548.77 1794.14 548.77C1785.26 548.77 1777.94 541.276 1777.94 532.215C1777.94 523.153 1785.08 515.834 1794.14 515.66C1803.38 515.485 1810.52 522.282 1810.52 531.692ZM1803.03 531.866C1803.03 527.161 1799.02 523.153 1794.49 523.153C1789.61 523.153 1785.78 527.509 1785.95 532.563C1786.13 537.268 1789.61 540.754 1794.14 540.928C1798.85 541.102 1803.03 536.92 1803.03 531.866Z" fill="black"/>
<path d="M1826.38 548.244C1822.72 547.895 1819.41 547.198 1816.79 544.933C1815.4 543.713 1814.88 541.97 1815.57 540.402C1816.27 538.659 1818.36 537.614 1820.28 538.659C1824.29 540.751 1827.77 540.751 1831.78 538.834C1833.52 537.962 1835.26 538.834 1836.14 540.054C1837.18 541.622 1836.66 543.713 1835.09 545.107C1832.65 547.547 1829.34 547.895 1826.38 548.244Z" fill="black"/>
<path d="M1897.3 327.805C1903.05 330.593 1907.93 332.858 1912.81 335.298C1910.9 343.663 1905.15 347.497 1897.48 345.928C1894.17 345.231 1891.9 343.488 1890.68 340.177C1889.81 337.738 1888.77 335.298 1889.64 332.161C1892.08 330.593 1894.69 329.199 1897.3 327.805Z" fill="white"/>
<path d="M1866.46 532.208C1866.46 537.261 1862.8 540.921 1858.09 540.921C1853.39 540.921 1849.55 536.913 1849.38 532.208C1849.21 527.503 1853.04 523.32 1857.57 523.146C1862.45 522.972 1866.46 527.154 1866.46 532.208Z" fill="white"/>
<path d="M1803.03 531.854C1803.03 536.908 1798.85 541.09 1793.97 540.916C1789.44 540.741 1785.95 537.256 1785.78 532.551C1785.6 527.323 1789.44 523.141 1794.32 523.141C1799.02 523.141 1803.03 527.149 1803.03 531.854Z" fill="white"/>
</svg>
