<?xml version="1.0" encoding="utf-8"?>
<!-- Generator: Adobe Illustrator 21.0.0, SVG Export Plug-In . SVG Version: 6.00 Build 0)  -->
<svg version="1.1" id="Calque_1" xmlns="http://www.w3.org/2000/svg" xmlns:xlink="http://www.w3.org/1999/xlink" x="0px" y="0px"
	 viewBox="0 0 100 125" style="enable-background:new 0 0 100 125;" xml:space="preserve">
<g>
	<path d="M50,19.7c-0.2,0-0.3,0-0.5,0c-1.3-2-3.5-3.4-6-3.4c-3.7,0-6.8,2.9-7.1,6.6c-9.9,5-16.7,15.2-16.7,27
		c0,16.7,13.6,30.3,30.3,30.3c7.7,0,14.8-2.9,20.1-7.7c0.6,0.2,1.2,0.2,1.8,0.2c3.9,0,7.1-3.2,7.1-7.1c0-1.4-0.4-2.8-1.2-3.9
		c1.5-3.6,2.4-7.6,2.4-11.8C80.3,33.3,66.7,19.7,50,19.7z M24.6,50c0-9.6,5.3-17.9,13.2-22.2c1.3,1.7,3.3,2.8,5.6,2.8
		c3.5,0,6.4-2.6,7-5.9C64.2,24.9,75.4,36.2,75.4,50c0,3.1-0.6,6.1-1.6,8.9c-0.6-0.1-1.2-0.2-1.8-0.2c-3.9,0-7.1,3.2-7.1,7.1
		c0,1.4,0.4,2.8,1.2,3.9c-4.4,3.6-10,5.7-16,5.7C36,75.4,24.6,64,24.6,50z"/>
	<path d="M91.5,32.7c1-1.2,1.6-2.8,1.6-4.5c0-3.9-3.2-7.1-7.1-7.1c-0.5,0-1,0.1-1.5,0.2C76.3,11.3,63.9,5,50,5
		c-15.4,0-29.1,7.8-37.2,19.7c-0.2,0-0.4,0-0.6,0c-3.9,0-7.1,3.2-7.1,7.1c0,1.9,0.7,3.6,1.9,4.8C5.7,40.8,5,45.3,5,50
		c0,12.2,4.9,23.3,12.8,31.4c-0.3,0.7-0.4,1.5-0.4,2.3c0,3.9,3.2,7.1,7.1,7.1c1.5,0,2.9-0.5,4.1-1.3C34.9,93,42.2,95,50,95
		c24.8,0,45-20.2,45-45C95,43.9,93.8,38,91.5,32.7z M50,90.1c-6.7,0-13.1-1.7-18.6-4.6c0.1-0.6,0.2-1.1,0.2-1.7
		c0-3.9-3.2-7.1-7.1-7.1c-1.3,0-2.5,0.3-3.5,0.9C14.1,70.4,9.9,60.7,9.9,50c0-3.9,0.6-7.7,1.6-11.2c0.2,0,0.5,0,0.7,0
		c3.9,0,7.1-3.2,7.1-7.1c0-1.9-0.8-3.6-2-4.9C24.6,16.6,36.5,9.9,50,9.9c12.1,0,23,5.4,30.4,14c-0.9,1.2-1.4,2.6-1.4,4.2
		c0,3.9,3.2,7.1,7.1,7.1c0.4,0,0.8,0,1.1-0.1c1.9,4.6,2.9,9.6,2.9,14.9C90.1,72.1,72.1,90.1,50,90.1z"/>
	<path d="M65.5,50c0-8.6-7-15.5-15.5-15.5c-8.6,0-15.5,7-15.5,15.5c0,4.6,2,8.8,5.3,11.6c0.3,3.6,3.3,6.5,7.1,6.5
		c2.3,0,4.3-1.1,5.6-2.8C59.8,64.2,65.5,57.7,65.5,50z M53.8,59.9c-0.5-3.4-3.5-6-7-6c-2.1,0-4,0.9-5.3,2.4c-1.3-1.8-2.1-4-2.1-6.4
		c0-5.9,4.8-10.6,10.6-10.6c5.9,0,10.6,4.8,10.6,10.6C60.6,54.5,57.8,58.4,53.8,59.9z"/>
</g>
</svg>
