<?xml version="1.0" encoding="utf-8"?>
<!-- Generator: Adobe Illustrator 21.0.0, SVG Export Plug-In . SVG Version: 6.00 Build 0)  -->
<svg version="1.1" id="Calque_1" xmlns="http://www.w3.org/2000/svg" xmlns:xlink="http://www.w3.org/1999/xlink" x="0px" y="0px"
	 viewBox="0 0 100 125" style="enable-background:new 0 0 100 125;" xml:space="preserve">
<style type="text/css">
	.st0{stroke:#000000;stroke-width:0.3463;stroke-miterlimit:10;}
</style>
<polygon class="st0" points="7.1,7.3 6.3,7.3 6.3,8.2 5.5,8.2 5.5,8.9 6.3,8.9 6.3,9.8 7.1,9.8 7.1,8.9 7.9,8.9 7.9,8.2 7.1,8.2 "/>
<polygon class="st0" points="6.8,60.2 6.4,59.4 5.8,59.8 6.2,60.5 5.5,61 5.8,61.6 6.6,61.2 7,61.9 7.6,61.6 7.2,60.8 8,60.4 
	7.6,59.7 "/>
<polygon class="st0" points="93.4,60.2 92.9,59.5 92.3,59.9 92.8,60.6 92.1,61.1 92.5,61.7 93.2,61.2 93.7,61.9 94.3,61.5 
	93.8,60.8 94.5,60.3 94.1,59.7 "/>
<path d="M33.8,31.7h0.3c0-0.4,0-0.8-0.1-1.1l-0.3,0.1c-0.1-0.4-0.2-0.7-0.4-1l0.3-0.2c-0.2-0.3-0.4-0.7-0.7-0.9l-0.3,0.2
	c-0.2-0.3-0.5-0.5-0.8-0.7l0.2-0.3c-0.3-0.2-0.7-0.4-1-0.5l-0.1,0.3c-0.3-0.1-0.7-0.2-1-0.3V27c-0.4,0-0.8,0-1.1,0v0.3
	c-0.4,0-0.7,0.1-1,0.3l-0.1-0.3c-0.4,0.1-0.7,0.3-1,0.5l0.2,0.3c-0.3,0.2-0.6,0.4-0.8,0.7l-0.3-0.2c-0.3,0.3-0.5,0.6-0.7,0.9
	l0.3,0.2c-0.2,0.3-0.3,0.6-0.4,1l-0.3-0.1c-0.1,0.4-0.1,0.8-0.1,1.1h0.3l0,0c0,0.4,0,0.7,0.1,1l-0.3,0.1c0.1,0.4,0.2,0.7,0.4,1.1
	l0.3-0.2c0.2,0.3,0.4,0.6,0.6,0.9l-0.3,0.2c0.3,0.3,0.5,0.5,0.9,0.8l0.2-0.3c0.3,0.2,0.6,0.4,0.9,0.5l-0.1,0.3
	c0.4,0.1,0.7,0.2,1.1,0.3v-0.3c0.2,0,0.4,0,0.5,0c0.2,0,0.3,0,0.5,0v0.3c0.4,0,0.8-0.1,1.1-0.3l-0.1-0.3c0.3-0.1,0.7-0.3,0.9-0.5
	l0.2,0.3c0.3-0.2,0.6-0.5,0.9-0.8l-0.3-0.2c0.2-0.3,0.4-0.6,0.6-0.9l0.3,0.2c0.2-0.3,0.3-0.7,0.4-1.1l-0.3-0.1
	C33.7,32.4,33.8,32,33.8,31.7z"/>
<path d="M75.1,31.7h0.3c0-0.4,0-0.8-0.1-1.1H75c-0.1-0.4-0.2-0.7-0.4-1l0.3-0.2c-0.2-0.3-0.4-0.7-0.7-0.9L74,28.7
	c-0.2-0.3-0.5-0.5-0.8-0.7l0.2-0.3c-0.3-0.2-0.7-0.4-1-0.5l-0.1,0.3c-0.3-0.1-0.7-0.2-1-0.3v-0.3c-0.4,0-0.8,0-1.1,0v0.3
	c-0.4,0-0.7,0.1-1,0.3L69,27.2c-0.4,0.1-0.7,0.3-1,0.5l0.2,0.3c-0.3,0.2-0.6,0.4-0.8,0.7l-0.3-0.2c-0.3,0.3-0.5,0.6-0.7,0.9l0.3,0.2
	c-0.2,0.3-0.3,0.6-0.4,1L66,30.5c-0.1,0.4-0.1,0.8-0.1,1.1h0.3l0,0c0,0.4,0,0.7,0.1,1L66,32.8c0.1,0.4,0.2,0.7,0.4,1.1l0.3-0.2
	c0.2,0.3,0.4,0.6,0.6,0.9L67,34.8c0.3,0.3,0.5,0.5,0.9,0.8l0.2-0.3c0.3,0.2,0.6,0.4,0.9,0.5v0.3c0.4,0.1,0.7,0.2,1.1,0.3v-0.3
	c0.2,0,0.4,0,0.5,0c0.2,0,0.3,0,0.5,0v0.3c0.4,0,0.8-0.1,1.1-0.3l-0.1-0.3c0.3-0.1,0.7-0.3,0.9-0.5l0.2,0.3c0.3-0.2,0.6-0.5,0.9-0.8
	L74,34.6c0.2-0.3,0.4-0.6,0.6-0.9l0.3,0.2c0.2-0.3,0.3-0.7,0.4-1.1L75,32.7C75,32.4,75.1,32,75.1,31.7z"/>
<path d="M75.1,31.7h0.3c0-0.4,0-0.8-0.1-1.1H75c-0.1-0.4-0.2-0.7-0.4-1l0.3-0.2c-0.2-0.3-0.4-0.7-0.7-0.9L74,28.7
	c-0.2-0.3-0.5-0.5-0.8-0.7l0.2-0.3c-0.3-0.2-0.7-0.4-1-0.5l-0.1,0.3c-0.3-0.1-0.7-0.2-1-0.3v-0.3c-0.4,0-0.8,0-1.1,0v0.3
	c-0.4,0-0.7,0.1-1,0.3L69,27.2c-0.4,0.1-0.7,0.3-1,0.5l0.2,0.3c-0.3,0.2-0.6,0.4-0.8,0.7l-0.3-0.2c-0.3,0.3-0.5,0.6-0.7,0.9l0.3,0.2
	c-0.2,0.3-0.3,0.6-0.4,1L66,30.5c-0.1,0.4-0.1,0.8-0.1,1.1h0.3l0,0c0,0.4,0,0.7,0.1,1L66,32.8c0.1,0.4,0.2,0.7,0.4,1.1l0.3-0.2
	c0.2,0.3,0.4,0.6,0.6,0.9L67,34.8c0.3,0.3,0.5,0.5,0.9,0.8l0.2-0.3c0.3,0.2,0.6,0.4,0.9,0.5v0.3c0.4,0.1,0.7,0.2,1.1,0.3v-0.3
	c0.2,0,0.4,0,0.5,0c0.2,0,0.3,0,0.5,0v0.3c0.4,0,0.8-0.1,1.1-0.3l-0.1-0.3c0.3-0.1,0.7-0.3,0.9-0.5l0.2,0.3c0.3-0.2,0.6-0.5,0.9-0.8
	L74,34.6c0.2-0.3,0.4-0.6,0.6-0.9l0.3,0.2c0.2-0.3,0.3-0.7,0.4-1.1L75,32.7C75,32.4,75.1,32,75.1,31.7z"/>
<path d="M71.2,24.3H28.8c-4.1,0-7.4,3.3-7.4,7.4l0,0c0,4.1,3.3,7.4,7.4,7.4h42.3c4.1,0,7.4-3.3,7.4-7.4l0,0
	C78.5,27.6,75.2,24.3,71.2,24.3z M29.3,37.1c-3,0-5.4-2.4-5.4-5.4s2.4-5.4,5.4-5.4s5.4,2.4,5.4,5.4C34.8,34.6,32.3,37.1,29.3,37.1z
	 M60.8,36.6H39.2v-9.8h21.6C60.8,26.8,60.8,36.6,60.8,36.6z M70.7,37.1c-3,0-5.4-2.4-5.4-5.4s2.4-5.4,5.4-5.4s5.4,2.4,5.4,5.4
	C76.1,34.6,73.6,37.1,70.7,37.1z"/>
<path d="M54.9,31.6c0,1.4,0.2,2.7,0.5,3.9h4.4v-7.9h-4.4C55.1,29,54.9,30.3,54.9,31.6z"/>
<path d="M40.2,35.6h8.5c0.3-1.3,0.4-2.6,0.4-3.9c0-1.3-0.1-2.7-0.4-3.9h-8.5V35.6z"/>
<g>
	<polygon class="st0" points="92.1,9.1 93,9 93.1,9.8 93.9,9.7 93.7,8.8 94.6,8.7 94.4,8 93.6,8.1 93.4,7.3 92.7,7.4 92.9,8.2 
		92,8.4 	"/>
	<path class="st0" d="M96.7,43V7.5L94.2,5H5.7L3.3,7.5V43l-1,1v14.8l1,1v1.7l2.5,2.7h11L22,50.3h56l5.2,13.8h11l2.5-2.7v-1.7l1-1
		V43.9L96.7,43z M92.9,6.6C94,6.4,95,7.1,95.2,8.2s-0.5,2.1-1.6,2.3c-1.1,0.2-2.1-0.5-2.3-1.6C91.2,7.8,91.9,6.8,92.9,6.6z
		 M7.7,62.4c-0.9,0.5-2.1,0.2-2.7-0.7c-0.5-0.9-0.2-2.1,0.7-2.7c0.9-0.5,2.1-0.2,2.7,0.7C9,60.6,8.6,61.8,7.7,62.4z M6.7,10.5
		c-1.1,0-2-0.9-2-2s0.9-2,2-2s2,0.9,2,2S7.8,10.5,6.7,10.5z M91.3,45.9l-2,2H10.6l-2-2V12.5l2-2h78.7l2,2
		C91.3,12.5,91.3,45.9,91.3,45.9z M94.4,62.3c-0.9,0.6-2.1,0.4-2.7-0.5s-0.4-2.1,0.5-2.7c0.9-0.6,2.1-0.4,2.7,0.5
		C95.5,60.4,95.3,61.7,94.4,62.3z"/>
</g>
<path d="M24.6,64.6h57.9l-5.4-13.3H22.9l-5.4,13.3h5.4c0,1.4-0.7,4.2-1.6,7.4c-1.9,7.3-4.5,17.2-1.4,21.2c0.9,1.1,2.2,1.7,3.9,1.7
	c1.8,0,3.2-0.6,4.2-1.9c3-4,0.3-13.8-1.7-21C25.3,68.8,24.5,66,24.6,64.6z M72.1,59.2c1.1,0,2,0.9,2,2s-0.9,2-2,2s-2-0.9-2-2
	C70.2,60.1,71,59.2,72.1,59.2z M62.3,56.7c1.1,0,2,0.9,2,2s-0.9,2-2,2s-2-0.9-2-2C60.3,57.6,61.2,56.7,62.3,56.7z M37.7,56.7
	c1.1,0,2,0.9,2,2s-0.9,2-2,2s-2-0.9-2-2C35.7,57.6,36.6,56.7,37.7,56.7z M27.9,59.2c1.1,0,2,0.9,2,2s-0.9,2-2,2s-2-0.9-2-2
	C25.9,60.1,26.8,59.2,27.9,59.2z M27.7,92.9c-0.8,1.1-2.2,1.7-3.9,1.7c-1.6,0-2.8-0.5-3.6-1.6c-2.9-3.8-0.4-13.7,1.5-20.9
	c0.9-3.6,1.6-6.1,1.6-7.5h1c0,1.3,0.7,3.8,1.7,7.5C27.9,79.2,30.6,89,27.7,92.9z"/>
</svg>
