<?xml version="1.0" encoding="utf-8"?>
<!-- Generator: Adobe Illustrator 21.0.0, SVG Export Plug-In . SVG Version: 6.00 Build 0)  -->
<svg version="1.1" id="Calque_1" xmlns="http://www.w3.org/2000/svg" xmlns:xlink="http://www.w3.org/1999/xlink" x="0px" y="0px"
	 viewBox="0 0 64 80" style="enable-background:new 0 0 64 80;" xml:space="preserve">
<title>news,report,journal,files,and,folders,commerce,and,shopping,news,report,newspaper</title>
<rect x="14" y="21" width="13" height="2"/>
<path d="M47,38H33c-0.6,0-1,0.4-1,1v13c0,0.6,0.4,1,1,1h14c0.6,0,1-0.4,1-1V39C48,38.4,47.6,38,47,38z M46,51H34V40h12V51z"/>
<path d="M23,45h-9c-0.6,0-1,0.4-1,1v6c0,0.6,0.4,1,1,1h9c0.6,0,1-0.4,1-1v-6C24,45.4,23.6,45,23,45z M22,51h-7v-4h7V51z"/>
<rect x="13" y="41" width="9" height="2"/>
<rect x="25" y="51" width="2" height="2"/>
<path d="M55,6v27.6l-1-1V4h-2v26.6l-1-1V3c0-0.6-0.4-1-1-1H11c-0.6,0-1,0.4-1,1v52c0,0.6,0.4,1,1,1h18c0,0.3,0.1,0.5,0.3,0.7
	l0.3,0.3H12v2h19.6l1,1H13v2h43c0.6,0,1-0.4,1-1V6H55z M25.8,36.4c-0.9,0-1.6-0.6-1.9-1.4H25v-2h-0.8c0.3-0.3,0.6-0.6,1-0.7l3.6-1
	l-1,3.6C27.5,35.8,26.7,36.4,25.8,36.4z M31.7,28.4l1-3.6c0.3-1.1,1.5-1.7,2.5-1.4s1.7,1.5,1.4,2.5c-0.2,0.7-0.7,1.2-1.4,1.4
	L31.7,28.4z M38,27.7V29h-1.5C37.1,28.7,37.6,28.3,38,27.7z M46,29h-6v-6h6V29z M31,32l3,3h-1v2h14v-2H35.8l0.5-0.5L35.8,34H47v-2
	H33.8l-1-1H49v23H31V32z M49,29h-1v-7c0-0.6-0.4-1-1-1h-8c-0.6,0-1,0.4-1,1v1.1c-1.3-1.8-3.8-2.3-5.6-1c-0.6,0.4-1.1,1-1.4,1.6V19
	h15c0.6,0,1-0.4,1-1V7c0-0.6-0.4-1-1-1H31V4h18V29z M31,8h14v9H31V8z M29,17H16V8h13V17z M29,4v2H15c-0.6,0-1,0.4-1,1v11
	c0,0.6,0.4,1,1,1h14v8.2l-2-2V25h-0.2l-1.2-1.2L24.3,25H14v2h12l2,2H12V4H29z M12,54V31h11.4c-0.7,0.5-1.2,1.2-1.5,2H13v2h8.8
	c0.1,0.7,0.5,1.4,1,2H13v2h14v-0.8c0.8-0.3,1.5-0.8,2-1.4V45h-4v2h4v1h-4v2h4v4H12z M31.4,56H50c0.6,0,1-0.4,1-1V32.4l1,1V57H32.4
	L31.4,56z M35.4,60l-1-1H53c0.6,0,1-0.4,1-1V35.4l1,1V60H35.4z"/>
</svg>
