<?xml version="1.0" encoding="utf-8"?>
<!-- Generator: Adobe Illustrator 21.0.0, SVG Export Plug-In . SVG Version: 6.00 Build 0)  -->
<svg version="1.1" id="Calque_1" xmlns="http://www.w3.org/2000/svg" xmlns:xlink="http://www.w3.org/1999/xlink" x="0px" y="0px"
	 viewBox="0 0 100 125" style="enable-background:new 0 0 100 125;" xml:space="preserve">
<title>08</title>
<g>
	<path d="M94,31.8L94,31.8c-2.7-13.4-12.4-22-24.7-22c-6.2,0-12.7,2.3-19.2,6.6C43.6,12,37,9.6,30.7,9.6C18.3,9.6,8.6,18.4,6,31.9
		c-3.7,19.1,7.8,44.4,41.9,58c1.4,0.6,3,0.6,4.4,0C86.2,76.1,97.7,50.8,94,31.8z M81.4,60.8c1.1-3.8,0-7.9-2.8-10.7L74.5,46l4.1-4.1
		l0,0c4.3-4.3,4.3-11.2,0-15.5l0,0c-4.3-4.3-11.2-4.3-15.5,0L59,30.5l-4.1-4.1c-4.6-3.9-11.6-3.3-15.5,1.3c-3.5,4.1-3.5,10.1,0,14.2
		l4.1,4.1l-4.1,4.1C34.8,54,34.2,61,38.1,65.6s10.9,5.2,15.5,1.3c0.5-0.4,0.9-0.8,1.3-1.3l4.1-4.1l4.1,4.1c3.4,3.4,8.6,4.2,12.8,2
		C69.7,74,61.2,79.8,50.1,84.4C19.2,72,8.7,49.7,11.9,33c2-10.6,9.4-17.4,18.8-17.4c5.5,0,11.6,2.4,17.5,6.8c1.1,0.8,2.5,0.8,3.6,0
		c6-4.4,12-6.7,17.4-6.7c9.5,0,16.7,6.6,18.8,17.2C89.8,41.4,87.8,51.4,81.4,60.8z M47.7,50.2l7,7l-4.1,4.1c-2.2,1.7-5.3,1.2-7-1
		c-1.3-1.8-1.3-4.2,0-6L47.7,50.2z M42.2,34.2c0-2.8,2.3-5,5.1-4.9c1.3,0,2.5,0.5,3.4,1.4l0,0l4.1,4.1l-7,7l-4.1-4.1
		C42.7,36.8,42.2,35.5,42.2,34.2z M52,46l7-7l7,7l-7,7L52,46z M74.4,37.7l-4.1,4.1l-7-7l4.1-4.1c1.9-1.9,5.1-1.9,7,0l0,0
		C76.3,32.6,76.3,35.8,74.4,37.7z M70.3,50.2l4.1,4.1c1.9,1.9,1.9,5.1,0,7l0,0c-1.9,1.9-5.1,1.9-7,0l-4.1-4.1L70.3,50.2z"/>
	<ellipse transform="matrix(0.7071 -0.7071 0.7071 0.7071 -16.2552 53.0386)" cx="55.9" cy="46.1" rx="1.2" ry="1.2"/>
	<ellipse transform="matrix(0.7071 -0.7071 0.7071 0.7071 -17.5268 55.9687)" cx="58.8" cy="49.1" rx="1.2" ry="1.2"/>
	<ellipse transform="matrix(0.7071 -0.7071 0.7071 0.7071 -12.9786 54.4152)" cx="59.2" cy="42.9" rx="1.2" ry="1.2"/>
	<ellipse transform="matrix(0.7071 -0.7071 0.7071 0.7071 -14.2502 57.3453)" cx="62.1" cy="45.9" rx="1.2" ry="1.2"/>
</g>
</svg>
