<svg id="Calque_1" data-name="Calque 1" xmlns="http://www.w3.org/2000/svg" viewBox="0 0 95.02 95.02"><title>patch01</title><circle cx="24.29" cy="63.01" r="2.8" transform="translate(-39.94 33.15) rotate(-45)"/><circle cx="37" cy="75.69" r="2.8" transform="translate(-45.18 45.85) rotate(-45)"/><circle cx="30.72" cy="69.35" r="2.8" transform="translate(-42.54 39.55) rotate(-45)"/><circle cx="18.03" cy="69.37" r="2.8" transform="translate(-46.27 30.58) rotate(-45)"/><circle cx="30.67" cy="81.97" r="2.8" transform="translate(-51.48 43.21) rotate(-45)"/><circle cx="24.31" cy="75.71" r="2.8" transform="translate(-48.91 36.88) rotate(-45)"/><circle cx="69.33" cy="18.03" r="2.8" transform="translate(5.06 51.82) rotate(-45)"/><circle cx="82.04" cy="30.7" r="2.8" transform="translate(-0.18 64.52) rotate(-45)"/><circle cx="75.68" cy="24.29" r="2.8" transform="translate(2.49 58.15) rotate(-45)"/><circle cx="62.99" cy="24.31" r="2.8" transform="translate(-1.24 49.18) rotate(-45)"/><circle cx="75.7" cy="36.99" r="2.8" transform="translate(-6.48 61.88) rotate(-45)"/><circle cx="69.35" cy="30.72" r="2.8" transform="translate(-3.91 55.55) rotate(-45)"/><path d="M55.4,32.9a2.35,2.35,0,0,0-3.3,0L32.9,52.1a2.35,2.35,0,0,0,0,3.3L44.6,67.1a2.36,2.36,0,0,0,1.6.7,2,2,0,0,0,1.6-.7L67,47.9a2.35,2.35,0,0,0,0-3.3ZM46.2,62.2l-8.4-8.4L53.7,37.9l8.4,8.4Z" transform="translate(-2.5 -2.48)"/><path d="M97.5,32.2A34,34,0,0,0,67.8,2.5a2.28,2.28,0,0,0-1.9.7L3.2,65.9a2.64,2.64,0,0,0-.7,1.9A34,34,0,0,0,32.2,97.5h.3a2,2,0,0,0,1.6-.7L96.8,34.1A2.28,2.28,0,0,0,97.5,32.2ZM31.6,92.7A29.29,29.29,0,0,1,7.2,68.3l61.2-61A29.29,29.29,0,0,1,92.8,31.7Z" transform="translate(-2.5 -2.48)"/></svg>