<?xml version="1.0" encoding="utf-8"?>
<!-- Generator: Adobe Illustrator 21.0.0, SVG Export Plug-In . SVG Version: 6.00 Build 0)  -->
<svg version="1.1" id="Calque_1" xmlns="http://www.w3.org/2000/svg" xmlns:xlink="http://www.w3.org/1999/xlink" x="0px" y="0px"
	 viewBox="0 0 48 60" style="enable-background:new 0 0 48 60;" xml:space="preserve">
<g>
	<path d="M24,8c-4.8,0-13,0.8-13,4v8v8v8c0,3.2,8.2,4,13,4c1.2,0,2.7-0.1,4.2-0.2c-0.4-0.7-0.7-1.3-0.9-1.9C26.3,38,25.2,38,24,38
		c-6.7,0-10.7-1.3-11-2v-5.7c2.7,1.3,7.7,1.7,11,1.7c1.1,0,2.4,0,3.7-0.1c0.5-0.9,1.2-1.6,2-2.2C28,29.9,26.2,30,24,30
		c-6.7,0-10.7-1.3-11-2l0,0v-5.7c2.7,1.3,7.7,1.7,11,1.7s8.3-0.4,11-1.7v5.6l2,1.3V20v-8C37,8.8,28.8,8,24,8z M24,10
		c6.6,0,10.6,1.3,11,2c-0.5,0.8-4.4,2-11,2s-10.6-1.3-11-2C13.5,11.3,17.5,10,24,10z M24,22c-6.7,0-10.7-1.3-11-2l0,0v-5.7
		c2.7,1.3,7.7,1.7,11,1.7s8.3-0.4,11-1.7v5.6C34.6,20.7,30.6,22,24,22z"/>
	<path d="M37.8,46.7l-0.7-0.6C37,46,32.9,42.5,31,40.2c-2.1-2.4-2.7-5-1.7-7.1c0.8-1.7,2.4-2.7,4.2-2.7c1.7,0,3.2,1,4.3,2.2
		c1.1-1.1,2.6-2.2,4.3-2.2l0,0c1.8,0,3.5,1,4.2,2.7c1,2.1,0.4,4.7-1.7,7.1c-1.9,2.3-6,5.8-6.2,5.9L37.8,46.7z M33.5,32.4
		c-1.1,0-2,0.6-2.4,1.5c-0.6,1.4-0.1,3.2,1.4,5c1.4,1.6,4.1,4,5.3,5.1c1.2-1.1,3.9-3.5,5.3-5.1c1.5-1.8,2-3.6,1.4-5
		c-0.4-0.9-1.4-1.5-2.4-1.5c-1.5,0-2.9,1.4-3.5,2.3l-0.8,1l-0.8-1C36.3,33.8,35,32.4,33.5,32.4z"/>
</g>
</svg>
