<?xml version="1.0" encoding="utf-8"?>
<!-- Generator: Adobe Illustrator 21.0.0, SVG Export Plug-In . SVG Version: 6.00 Build 0)  -->
<svg version="1.1" id="Calque_1" xmlns="http://www.w3.org/2000/svg" xmlns:xlink="http://www.w3.org/1999/xlink" x="0px" y="0px"
	 viewBox="0 0 100 125" style="enable-background:new 0 0 100 125;" xml:space="preserve">
<g>
	<rect x="11.9" y="6.5" width="76.1" height="4.2"/>
	<rect x="17.3" y="13" width="65.4" height="4.2"/>
	<rect x="27.2" y="45.1" width="43.8" height="4.2"/>
	<path d="M29,71.5c1,1.8,2.1,3.6,3.1,5.4c0-7.3,0-14.7,0-22c0.1-1.1-1.1-2.3-1.7-2.3c-0.5,0-1.7,1-1.6,2.3
		C28.9,60.4,28.9,65.9,29,71.5L29,71.5z"/>
	<path d="M37.8,85.4c1,1.8,2.1,3.6,3.1,5.4c0-7.3,0-28.6,0-36c0.1-1.1-1.1-2.3-1.7-2.3c-0.5,0-1.7,1-1.6,2.3
		C37.7,60.4,37.8,79.9,37.8,85.4L37.8,85.4z"/>
	<path d="M50.6,92.4l-3.1,2.2c0-7.3,0-32.4,0-39.8c-0.1-1.1,1.1-2.3,1.7-2.3c0.5,0,1.7,1,1.6,2.3L50.6,92.4L50.6,92.4z"/>
	<path d="M59.9,86.9l-3.1,2.2c0-7.3,0-26.9,0-34.2c-0.1-1.1,1.1-2.3,1.7-2.3c0.5,0,1.7,1,1.6,2.3L59.9,86.9L59.9,86.9z"/>
	<path d="M69.5,80.7l-3.1,2.2c0-7.3,0-20.7,0-28c-0.1-1.1,1.1-2.3,1.7-2.3c0.5,0,1.7,1,1.6,2.3L69.5,80.7L69.5,80.7z"/>
	<circle cx="30.6" cy="40.3" r="2.4"/>
	<circle cx="49.6" cy="40.3" r="2.4"/>
	<circle cx="67.3" cy="40.3" r="2.4"/>
	<path d="M21.9,25.5c6.6-1.5,13.5,9.5,16,13.7c1.9,3.3,3.5,3.5,3.8,0.5c0.4-3.4,0.2-7.5,0.2-10.9c0-5.7,0.8-3.7,3.2,0
		c0.9,1,1.8,2.1,2.7,3.1c1.4,1.9,2.8,1.9,4.2,0c0.6-0.9,1.3-1.8,1.9-2.7c3.5-6,3.8-6,3.7,0c0,3.4-0.2,6.9,0,10.3c0.3,4,2,2,4-0.9
		c4.6-8,9.4-14.3,15-14.5c0.2,1.9-0.9,2.3-1.6,2.8c-0.5,0.4-0.5,1-0.5,1.6c0,4.7,6.6,4.4,7.9,0.2c1.2-4.2-2.2-9.5-6.9-8.8
		c-6.2,0.9-8.6,5.1-11.6,8.8c-2.3,2.7-2.7,3.5-2.7-0.4c0-1.9,0-3.9,0-5.8c-1-5.4-4.3-3.2-6.7-0.1c-1.3,1.7-2.7,3.4-3.8,5.2
		c-0.6,0.9-1.2,0.9-1.9,0.1c-1.3-1.7-2.7-3.4-4.1-5c-2.4-2.9-6.1-5.7-6.3,0.5c0,2.6,0,5.2,0,7.8c0.4,2.5-0.1,2.7-1.2,0.7
		C32,24.7,26.5,20.2,20.3,21.1c-3.9,0.8-5.2,4-5.2,5.8c0,4,6.2,7.2,7.9,2.5C23.6,27.8,21.3,27.2,21.9,25.5L21.9,25.5z"/>
	<path d="M51.2,20.6c-0.3,0.3-0.5,0.5-0.8,0.8c-0.4,0.5-0.8,1-1.4,0c-0.2-0.3-0.2-0.3-0.4-0.6c-1.2-1.8-3.3-0.7-1.9,1.1
		c0.7,0.8,1.2,1.6,1.9,2.4c0.8,1,1.2,1.1,2,0c0.7-0.8,1.3-1.6,1.9-2.4C53.6,20.6,52.5,19.2,51.2,20.6L51.2,20.6z"/>
</g>
</svg>
