<?xml version="1.0" encoding="utf-8"?>
<!-- Generator: Adobe Illustrator 21.0.0, SVG Export Plug-In . SVG Version: 6.00 Build 0)  -->
<svg version="1.1" id="Calque_1" xmlns="http://www.w3.org/2000/svg" xmlns:xlink="http://www.w3.org/1999/xlink" x="0px" y="0px"
	 viewBox="0 0 100 125" style="enable-background:new 0 0 100 125;" xml:space="preserve">
<g>
	<path d="M8.5,51.5c0.2,0,0.4,0,0.6-0.1c0.8-0.3,1.1-1.2,0.8-2c-0.5-1.2-0.9-2.3-1.1-3.5c-0.2-0.8-1-1.3-1.8-1.1s-1.3,1-1.1,1.8
		c0.3,1.3,0.7,2.6,1.3,3.9C7.4,51.2,8,51.5,8.5,51.5z"/>
	<path d="M94.1,57.5c-0.9,0-1.5,0.6-1.6,1.4c-0.4,6.5-5.1,10.5-12.4,10.5c-9.2,0-19.8-6.3-25.7-15.2c0.1-0.1,0.2-0.2,0.3-0.4
		c3.7,1.5,7.4,2.3,10.8,2.3c2.5,0,4.9-0.4,6.9-1.3c3.5-1.4,6.1-4,7.5-7.4c2-4.9,1.2-11-2.2-17.2c-0.4-0.7-1.3-1-2-0.6s-1,1.3-0.6,2
		c2.9,5.3,3.7,10.7,2.1,14.7c-1,2.6-3,4.6-5.8,5.7c-4.1,1.7-9.7,1.3-15.3-1c0.1-0.4,0.1-0.8,0.1-1.2c0-0.6-0.1-1.2-0.3-1.8
		c5.8-5.8,5.1-16.1-1.9-25.4C49.8,17,44,12.4,37.6,9.8c-0.8-0.3-1.6,0.1-2,0.8c-0.3,0.8,0.1,1.6,0.8,2c5.9,2.4,11.2,6.6,15.1,11.8
		c5.8,7.9,6.8,16.3,2.6,21.1c-1-0.9-2.4-1.5-3.8-1.5c-0.5,0-0.9,0.1-1.4,0.2c-6.4-9.8-18.1-16.7-28.3-16.7
		c-8.5,0-14.5,4.9-15.3,12.5c-0.1,0.8,0.5,1.6,1.3,1.7c0.8,0.1,1.6-0.5,1.7-1.3c0.7-6.2,5.3-9.8,12.4-9.8c9.2,0,19.8,6.3,25.7,15.2
		c-0.1,0.1-0.2,0.2-0.3,0.4c-6.4-2.6-12.8-3-17.7-1.1c-3.5,1.4-6.1,4-7.5,7.4c-2.9,7.4,0.6,17.7,8.7,25.7c0.3,0.3,0.7,0.4,1,0.4
		c0.4,0,0.8-0.2,1.1-0.5c0.6-0.6,0.6-1.5,0-2.1c-7.3-7.1-10.5-16.1-8-22.4c1-2.6,3-4.6,5.8-5.7c4.1-1.7,9.7-1.3,15.3,1
		c-0.1,0.4-0.1,0.8-0.1,1.2c0,0.6,0.1,1.2,0.3,1.8c-5.8,5.8-5.1,16.1,1.9,25.4c4.8,6.4,11.7,11.5,19.1,13.8c0.1,0,0.3,0.1,0.4,0.1
		c0.6,0,1.2-0.4,1.4-1.1c0.2-0.8-0.2-1.6-1-1.9C60,86,53.6,81.4,49.2,75.5c-5.8-7.9-6.8-16.3-2.6-21.1c1,0.9,2.4,1.5,3.8,1.5
		c0.5,0,0.9-0.1,1.4-0.2c6.4,9.8,18.1,16.7,28.3,16.7c8.9,0,14.9-5.2,15.4-13.3C95.5,58.3,94.9,57.6,94.1,57.5z M47.9,51.4
		c-0.2-0.4-0.4-0.9-0.4-1.4s0.1-0.9,0.3-1.3c0.3-0.5,0.7-0.9,1.2-1.2c0.4-0.2,0.8-0.3,1.3-0.3c1,0,2,0.5,2.5,1.5
		c0.2,0.4,0.4,0.9,0.4,1.4s-0.1,0.9-0.3,1.3c-0.3,0.5-0.7,0.9-1.2,1.2c-0.4,0.2-0.8,0.3-1.3,0.3C49.4,52.9,48.4,52.3,47.9,51.4z"/>
	<path d="M91.7,48.6c-0.8,0.3-1.1,1.2-0.8,2c0.6,1.4,1,2.7,1.3,4.1c0.1,0.7,0.8,1.2,1.5,1.2c0.1,0,0.2,0,0.3,0
		c0.8-0.2,1.3-1,1.2-1.8c-0.3-1.5-0.8-3.1-1.4-4.6C93.3,48.7,92.4,48.3,91.7,48.6z"/>
	<path d="M38.3,81.2c-1-0.6-2-1.3-3-2c-0.7-0.5-1.6-0.4-2.1,0.3c-0.5,0.7-0.4,1.6,0.3,2.1c1,0.8,2.1,1.5,3.2,2.2
		c0.2,0.1,0.5,0.2,0.8,0.2c0.5,0,1-0.3,1.3-0.7C39.3,82.5,39,81.6,38.3,81.2z"/>
	<path d="M70.9,25.9c0.3,0.3,0.7,0.5,1.1,0.5s0.7-0.1,1-0.4c0.6-0.5,0.7-1.5,0.1-2.1c-0.4-0.5-0.9-1-1.4-1.5c-0.6-0.6-1.5-0.6-2.1,0
		s-0.6,1.5,0,2.1C70.1,25,70.5,25.4,70.9,25.9z"/>
	<path d="M62.4,18.8c1.2,0.7,2.3,1.5,3.4,2.3c0.3,0.2,0.6,0.3,0.9,0.3c0.4,0,0.9-0.2,1.2-0.6c0.5-0.7,0.4-1.6-0.3-2.1
		c-1.2-0.9-2.4-1.8-3.7-2.5c-0.7-0.4-1.6-0.2-2.1,0.5C61.5,17.5,61.7,18.4,62.4,18.8z"/>
	<path d="M79.4,88.4c-0.6,0.2-1.2,0.4-1.8,0.5c-0.8,0.2-1.3,1-1.1,1.8c0.2,0.7,0.8,1.2,1.5,1.2c0.1,0,0.2,0,0.3,0
		c0.7-0.2,1.5-0.4,2.2-0.6c0.8-0.3,1.2-1.2,0.9-1.9S80.2,88.1,79.4,88.4z"/>
	<path d="M73.7,89.4c-0.6,0-0.8,0-1.2-0.1c-0.2,0-0.5-0.1-0.8-0.1c-0.8-0.1-1.6,0.5-1.7,1.3s0.5,1.6,1.3,1.7c0.3,0,0.5,0.1,0.7,0.1
		c0.4,0.1,0.7,0.1,1.2,0.1c0.2,0,0.4,0,0.6,0c0.8,0,1.5-0.7,1.4-1.6C75.2,90,74.6,89.3,73.7,89.4z"/>
	<path d="M28.8,10.8c0.8,0.1,1.6,0.2,2.5,0.4c0.1,0,0.2,0,0.3,0c0.7,0,1.3-0.5,1.5-1.2c0.2-0.8-0.4-1.6-1.2-1.8
		C31,8,30,7.9,29.1,7.8c-0.8-0.1-1.6,0.5-1.6,1.4C27.4,10,28,10.7,28.8,10.8z"/>
	<path d="M20.8,11.7c0.2,0,0.4,0,0.5-0.1c1.1-0.4,2.2-0.7,3.5-0.8c0.8-0.1,1.4-0.8,1.3-1.7c-0.1-0.8-0.8-1.4-1.7-1.3
		c-1.5,0.2-2.9,0.5-4.2,1c-0.8,0.3-1.2,1.2-0.9,1.9C19.7,11.3,20.2,11.7,20.8,11.7z"/>
	<path d="M87.1,11.8c0.8,0,1.5-0.7,1.5-1.5V6.8c0-0.8-0.7-1.5-1.5-1.5S85.6,6,85.6,6.8v3.4C85.6,11.1,86.3,11.8,87.1,11.8z"/>
	<path d="M87.1,13.6c-0.8,0-1.5,0.7-1.5,1.5v3.4c0,0.8,0.7,1.5,1.5,1.5s1.5-0.7,1.5-1.5v-3.4C88.6,14.2,87.9,13.6,87.1,13.6z"/>
	<path d="M81.3,14.2h3.4c0.8,0,1.5-0.7,1.5-1.5s-0.7-1.5-1.5-1.5h-3.4c-0.8,0-1.5,0.7-1.5,1.5S80.4,14.2,81.3,14.2z"/>
	<path d="M88,12.7c0,0.8,0.7,1.5,1.5,1.5h3.4c0.8,0,1.5-0.7,1.5-1.5s-0.7-1.5-1.5-1.5h-3.4C88.7,11.2,88,11.8,88,12.7z"/>
	<path d="M12.2,86.7c0.8,0,1.5-0.7,1.5-1.5v-3.4c0-0.8-0.7-1.5-1.5-1.5s-1.5,0.7-1.5,1.5v3.4C10.7,86,11.3,86.7,12.2,86.7z"/>
	<path d="M12.2,88.5c-0.8,0-1.5,0.7-1.5,1.5v3.4c0,0.8,0.7,1.5,1.5,1.5s1.5-0.7,1.5-1.5V90C13.7,89.2,13,88.5,12.2,88.5z"/>
	<path d="M11.3,87.6c0-0.8-0.7-1.5-1.5-1.5H6.3c-0.8,0-1.5,0.7-1.5,1.5s0.7,1.5,1.5,1.5h3.4C10.6,89.1,11.3,88.4,11.3,87.6z"/>
	<path d="M18,86.1h-3.4c-0.8,0-1.5,0.7-1.5,1.5s0.7,1.5,1.5,1.5H18c0.8,0,1.5-0.7,1.5-1.5S18.8,86.1,18,86.1z"/>
</g>
</svg>
