<?xml version="1.0" encoding="utf-8"?>
<!-- Generator: Adobe Illustrator 21.0.0, SVG Export Plug-In . SVG Version: 6.00 Build 0)  -->
<svg version="1.1" id="Calque_1" xmlns="http://www.w3.org/2000/svg" xmlns:xlink="http://www.w3.org/1999/xlink" x="0px" y="0px"
	 viewBox="0 0 48 60" style="enable-background:new 0 0 48 60;" xml:space="preserve">
<g>
	<g>
		<path d="M38.9,19.8c-0.6-2.3-2.2-4.3-4.5-5.2c-2.1-0.8-4.4-0.7-6.3,0.3c-2.3-4.8-7.3-6.1-11.2-5.2c-3.9,0.9-7.8,4.5-7.5,10
			c-4,1.1-5.6,4.8-5.4,7.9c0.3,3.4,2.8,7,7.6,7h3.6c-0.5-0.7-1-1.4-1.3-2h-2.3C8,32.6,6.2,30,6,27.4s1.1-5.4,4.6-6l1-0.2l-0.1-1
			c-0.7-4.9,2.5-7.9,5.9-8.7c0.7-0.2,1.4-0.2,2.1-0.2c2.9,0,6,1.5,7.3,5.3l0.4,1.3l1.1-0.8c1.6-1.2,3.6-1.4,5.4-0.7
			c1.8,0.7,3.1,2.3,3.4,4.3l0.1,0.6l0.6,0.2c3.3,0.9,4.5,3.7,4.1,6.2c-0.3,2.4-2.2,4.9-5.6,4.9H34c-0.3,0.6-0.7,1.3-1.3,2h3.6
			c4.6,0,7.1-3.5,7.5-6.7C44.3,24.9,42.9,21.1,38.9,19.8z"/>
	</g>
	<g>
		<path d="M24,40.3l-0.7-0.6c-0.2-0.1-4.3-3.7-6.2-5.9c-2.1-2.4-2.7-5-1.7-7.1c0.8-1.7,2.4-2.7,4.2-2.7c1.7,0,3.2,1,4.3,2.2
			c1.1-1.1,2.6-2.2,4.3-2.2l0,0c1.8,0,3.5,1,4.2,2.7c1,2.1,0.4,4.7-1.7,7.1c-1.9,2.3-6,5.8-6.2,5.9L24,40.3z M19.7,26
			c-1.1,0-2,0.6-2.4,1.5c-0.6,1.4-0.1,3.2,1.4,5c1.4,1.6,4.1,4,5.3,5.1c1.2-1.1,3.9-3.5,5.3-5.1c1.5-1.8,2-3.6,1.4-5
			c-0.4-0.9-1.4-1.5-2.4-1.5c-1.5,0-2.9,1.4-3.5,2.3l-0.8,1l-0.8-1C22.5,27.4,21.2,26,19.7,26z"/>
	</g>
</g>
</svg>
