<?xml version="1.0" encoding="utf-8"?>
<!-- Generator: Adobe Illustrator 21.0.0, SVG Export Plug-In . SVG Version: 6.00 Build 0)  -->
<svg version="1.1"
	 id="Calque_1" xmlns:cc="http://creativecommons.org/ns#" xmlns:dc="http://purl.org/dc/elements/1.1/" xmlns:inkscape="http://www.inkscape.org/namespaces/inkscape" xmlns:rdf="http://www.w3.org/1999/02/22-rdf-syntax-ns#" xmlns:sodipodi="http://sodipodi.sourceforge.net/DTD/sodipodi-0.dtd" xmlns:svg="http://www.w3.org/2000/svg"
	 xmlns="http://www.w3.org/2000/svg" xmlns:xlink="http://www.w3.org/1999/xlink" x="0px" y="0px" viewBox="0 0 100 125"
	 style="enable-background:new 0 0 100 125;" xml:space="preserve">
<g transform="translate(0,-952.36218)">
	<path d="M63,962.4c11,0,20,9,20,20c0,0.8-0.1,1.6-0.2,2.4c5.5,3.1,9.2,8.9,9.2,15.6c0,10-8,18-18,18H51v12.1
		c2.5,0.4,4.5,2.4,4.9,4.9h29.2c0.5-2.8,3-5,5.9-5c3.3,0,6,2.7,6,6s-2.7,6-6,6c-3,0-5.4-2.2-5.9-5H55.9c-0.5,2.8-2.9,5-5.9,5
		s-5.4-2.2-5.9-5H14.9c-0.5,2.8-2.9,5-5.9,5c-3.3,0-6-2.7-6-6s2.7-6,6-6c3,0,5.4,2.2,5.9,5h29.2c0.4-2.5,2.4-4.5,4.9-4.9v-12.1H25
		c-9.4,0-17-7.6-17-17c0-8.4,6.2-15.4,14.3-16.7c1.3-7,7.4-12.3,14.7-12.3c2.9,0,5.5,0.9,7.7,2.3C47.7,967.5,54.7,962.4,63,962.4
		L63,962.4z M63,964.4c-7.8,0-14.5,5-16.9,12c-0.2,0.5-0.8,0.8-1.3,0.6c-0.1,0-0.2-0.1-0.3-0.1c-2.1-1.5-4.7-2.4-7.5-2.4
		c-6.6,0-12,4.9-12.9,11.3c-0.1,0.5-0.4,0.8-0.9,0.9c-7.5,0.9-13.3,7.2-13.3,14.9c0,8.3,6.7,15,15,15h49c8.9,0,16-7.1,16-16
		c0-6.2-3.5-11.6-8.7-14.3c-0.4-0.2-0.6-0.6-0.5-1c0.1-0.9,0.2-1.8,0.2-2.7C81,972.4,73,964.4,63,964.4z M91,1032.4
		c-2.2,0-4,1.8-4,4s1.8,4,4,4s4-1.8,4-4S93.2,1032.4,91,1032.4z M50,1032.4c-2.2,0-4,1.8-4,4s1.8,4,4,4s4-1.8,4-4
		S52.2,1032.4,50,1032.4z M9,1032.4c-2.2,0-4,1.8-4,4s1.8,4,4,4s4-1.8,4-4S11.2,1032.4,9,1032.4z"/>
</g>
</svg>
