<?xml version="1.0" encoding="utf-8"?>
<!-- Generator: Adobe Illustrator 21.0.0, SVG Export Plug-In . SVG Version: 6.00 Build 0)  -->
<svg version="1.1" id="Calque_1" xmlns="http://www.w3.org/2000/svg" xmlns:xlink="http://www.w3.org/1999/xlink" x="0px" y="0px"
	 viewBox="0 0 128 160" style="enable-background:new 0 0 128 160;" xml:space="preserve">
<title>Modern Business 6 expandlines</title>
<path d="M23,52c-1.1,0-2,0.9-2,2s0.9,2,2,2h27.2c0.1-1.4,0.4-2.7,0.6-4H23z"/>
<path d="M23,62c-1.1,0-2,0.9-2,2s0.9,2,2,2h27.4c-0.2-1.3-0.3-2.6-0.3-4H23z"/>
<path d="M37,93.9c-2.3,0-4.6-0.2-6.8-0.7c-0.4-0.1-0.7-0.1-1.1,0.1l-17.6,6.1l5.8-9.9c0.5-0.9,0.3-2-0.5-2.6C8.7,80.5,4,70.8,4,60.5
	C4,42,18.8,27,37,27c7.9,0,15.6,2.9,21.6,8.2c0.8-1.1,1.7-2.1,2.6-3.1C54.5,26.2,45.9,23,37,23C16.6,23,0,39.8,0,60.5
	c0,10.9,4.7,21.3,13,28.5L5.3,102c-0.6,1-0.2,2.2,0.7,2.7c0.5,0.3,1.1,0.4,1.7,0.2l22.2-7.7c11.2,2.2,22.7-0.9,31.2-8.4
	c-0.9-1-1.8-2-2.6-3.1C52.6,91,44.9,93.9,37,93.9z"/>
<path d="M115,88.9c8.3-7.1,13-17.5,13-28.5C128,39.8,111.4,23,91,23S54,39.8,54,60.5s16.6,37.5,37,37.5c2.4,0,4.8-0.2,7.1-0.7
	l22.2,7.7c1,0.4,2.2-0.2,2.5-1.2c0.2-0.6,0.1-1.2-0.2-1.7L115,88.9z M98.9,93.3c-0.3-0.1-0.7-0.1-1.1-0.1c-2.2,0.5-4.5,0.7-6.8,0.7
	c-18.2,0-33-15-33-33.5C58,42,72.8,27,91,27s33,15,33,33.5c0,10.3-4.7,20.1-12.8,26.4c-0.8,0.6-1,1.7-0.5,2.6l5.8,9.9L98.9,93.3z"/>
<path d="M76,52c-3.3,0-6,2.7-6,6s2.7,6,6,6s6-2.7,6-6l0,0C82,54.7,79.3,52,76,52z M76,60c-1.1,0-2-0.9-2-2s0.9-2,2-2s2,0.9,2,2
	C78,59.1,77.1,60,76,60z"/>
<path d="M106,52c-3.3,0-6,2.7-6,6s2.7,6,6,6s6-2.7,6-6l0,0C112,54.7,109.3,52,106,52z M106,60c-1.1,0-2-0.9-2-2s0.9-2,2-2s2,0.9,2,2
	C108,59.1,107.1,60,106,60z"/>
<path d="M95,72h-8c-1.1,0-2,0.9-2,2s0.9,2,2,2h8c1.1,0,2-0.9,2-2S96.1,72,95,72z"/>
</svg>
