<?xml version="1.0" encoding="utf-8"?>
<!-- Generator: Adobe Illustrator 21.0.0, SVG Export Plug-In . SVG Version: 6.00 Build 0)  -->
<svg version="1.1" id="Calque_1" xmlns="http://www.w3.org/2000/svg" xmlns:xlink="http://www.w3.org/1999/xlink" x="0px" y="0px"
	 viewBox="0 0 30 37.5" style="enable-background:new 0 0 30 37.5;" xml:space="preserve">
<title>communication-chat-talk-forum-discussion</title>
<path d="M10.1,19.9c2.2-1.7,2.5-4.9,0.8-7s-4.9-2.5-7-0.8s-2.5,4.9-0.8,7c0.2,0.3,0.5,0.6,0.8,0.8C2.1,21,1,22.9,1,25v3
	c0,0.6,0.4,1,1,1h10c0.6,0,1-0.4,1-1v-3C13,22.9,11.9,21,10.1,19.9z"/>
<path d="M26.1,19.9c2.2-1.7,2.5-4.9,0.8-7c-1.7-2.2-4.9-2.5-7-0.8s-2.5,4.9-0.8,7c0.2,0.3,0.5,0.6,0.8,0.8C18.1,21,17,22.9,17,25v3
	c0,0.6,0.4,1,1,1h10c0.6,0,1-0.4,1-1v-3C29,22.9,27.9,21,26.1,19.9z"/>
<path d="M25,9c0.6,0,1-0.4,1-1V2c0-0.6-0.4-1-1-1H11c-0.6,0-1,0.4-1,1v6c0,0.6,0.4,1,1,1h1.6l-0.6,1.7c-0.2,0.5,0.1,1.1,0.6,1.3
	c0.3,0.1,0.5,0.1,0.8-0.1L19.2,9H25z"/>
</svg>
