<?xml version="1.0" encoding="utf-8"?>
<!-- Generator: Adobe Illustrator 21.0.0, SVG Export Plug-In . SVG Version: 6.00 Build 0)  -->
<svg version="1.1" id="Calque_1" xmlns="http://www.w3.org/2000/svg" xmlns:xlink="http://www.w3.org/1999/xlink" x="0px" y="0px"
	 viewBox="0 0 100 125" style="enable-background:new 0 0 100 125;" xml:space="preserve">
<path d="M77.5,35.4l-5.2-1.1c-0.9-0.2-1.9,0-2.8,0.4l-5.5,3l4.5-4.4c1-1,2.4-1.5,3.8-1.3l4.4,0.6c1.1,0.1,1.7,1.4,1.1,2.3L77.5,35.4
	z M73,36.6L66.8,40l4.5-0.7v0c0,1,0.8,1.9,1.9,1.9s1.9-0.8,1.9-1.9c0-0.2,0-0.4-0.1-0.6l0.8-0.1C76,37,74.4,35.9,73,36.6z M65.2,5.2
	l-13-0.1v28.9c4.3,1.7,7.3,5.9,7.3,10.8c0,6.4-5.2,11.7-11.6,11.7s-11.7-5.2-11.7-11.7c0-5.2,3.4-9.6,8.2-11.1V5
	C25.8,6.4,10.9,21.8,10.9,40.9v27.8c0,7.9,5.4,14.8,13.1,16.7L62.8,95V31.6c0-7.1,5.3-12.9,12.1-13.7c2.2,3.4,6.2,7.9,5.9,15.1
	C80.8,35,79,36.8,80.1,39c2.7,5.3,5.1,7.1,5.9,8.2c0.6,0.9,0.1,1.6,0,1.7c-0.5,0.8-1.8,1.5-3.2,2.1c-0.7,1.2-0.2,2.5,0.4,3.2
	c0.6,0.8,1,1.9-1,3c1.2,0.6,1.2,1.7,0.4,2.4c-1.6,1.6-1.2,2.5-1.2,6.2c0,2.1-1.8,3.5-3.6,3.5h-6.1c-2.6,0-4.7,2.1-4.7,4.7v8.5
	l22.1,5.9V29.2C89.1,16,78.4,5.3,65.2,5.2z M51.5,46.7c0.4-0.4,0.7-1,0.7-1.7c0-1.3-1.1-2.4-2.4-2.4c-0.9,0-1.6,0.5-2,1.1
	c-0.4-0.7-1.2-1.1-2-1.1c-1.3,0-2.4,1.1-2.4,2.4c0,0.8,0.4,1.5,1,1.9l3.3,2.3C47.7,49.3,51.3,46.9,51.5,46.7L51.5,46.7L51.5,46.7z"
	/>
</svg>
