<?xml version="1.0" encoding="utf-8"?>
<!-- Generator: Adobe Illustrator 21.0.0, SVG Export Plug-In . SVG Version: 6.00 Build 0)  -->
<svg version="1.1" id="Calque_1" xmlns="http://www.w3.org/2000/svg" xmlns:xlink="http://www.w3.org/1999/xlink" x="0px" y="0px"
	 viewBox="0 0 100 125" style="enable-background:new 0 0 100 125;" xml:space="preserve">
<path d="M47.7,50.2L44,47.6C43.1,47,42.6,46,42.6,45c0-1.7,1.4-3.1,3.1-3.1c0.8,0,1.5,0.3,2,0.7c0.6-0.5,1.3-0.7,2-0.7
	c1.7,0,3.1,1.4,3.1,3.1c0,0.8-0.3,1.6-0.9,2.2c-0.2,0.2-1.5,1.1-3.9,2.7L47.7,50.2z M45.8,43.4c-0.9,0-1.6,0.7-1.6,1.6
	c0,0.5,0.3,1,0.7,1.3l2.9,2c1.5-1,3-2,3.2-2.2c0.3-0.3,0.5-0.7,0.5-1.1c0-0.9-0.7-1.6-1.6-1.6c-0.6,0-1.1,0.3-1.4,0.8l-0.6,1l-0.6-1
	C46.8,43.7,46.3,43.4,45.8,43.4z M63.6,96l-39.7-9.8c-8-2-13.6-9.1-13.6-17.4V40.9c0-19.2,14.9-35.3,34-36.7L45,4.2v30.1l-0.5,0.2
	c-4.6,1.4-7.6,5.6-7.6,10.4c0,6,4.9,10.9,10.9,10.9c6,0,10.9-4.9,10.9-10.9c0-4.5-2.7-8.4-6.8-10.1l-0.5-0.2V4.4l13.7,0.1
	c13.6,0.1,24.6,11.2,24.6,24.8v60.2l-23.6-6.3V74c0-3,2.4-5.4,5.4-5.4h6.1c1.4,0,2.8-1.1,2.8-2.8c0-0.7,0-1.4,0-1.9
	c-0.1-2.2-0.1-3.3,1.4-4.8c0.2-0.2,0.4-0.5,0.3-0.7c0-0.3-0.3-0.4-0.5-0.5l-1.4-0.6l1.4-0.7c0.6-0.3,1-0.7,1.1-1
	c0.1-0.2-0.1-0.5-0.3-0.9c-1-1.3-1.2-2.9-0.4-4.1l0.1-0.2l0.2-0.1c1.6-0.7,2.5-1.3,2.9-1.8c0.2-0.3,0.2-0.6,0-0.9
	c-0.2-0.2-0.4-0.5-0.8-0.9c-1.2-1.2-3.1-3.3-5.2-7.4c-0.8-1.6-0.3-3.1,0.2-4.4c0.3-0.7,0.5-1.4,0.5-2c0.2-5.8-2.5-9.7-4.6-12.9
	c-0.3-0.5-0.6-0.9-0.9-1.4c-6.3,1-11,6.5-11,12.9L63.6,96L63.6,96z M43.5,5.8c-17.9,1.7-31.8,17-31.8,35.1v27.8
	c0,7.6,5.1,14.1,12.5,15.9L62.1,94V31.6c0-7.4,5.5-13.6,12.8-14.5l0.5-0.1l0.3,0.4c0.3,0.6,0.7,1.1,1.2,1.7
	c2.2,3.2,5.1,7.5,4.9,13.8c0,0.9-0.3,1.7-0.6,2.5c-0.4,1.1-0.8,2.1-0.3,3.2c2,3.9,3.8,5.9,4.9,7.1c0.4,0.4,0.7,0.7,0.9,1
	c0.6,0.8,0.6,1.7,0.1,2.6c-0.5,0.8-1.6,1.5-3.3,2.3c-0.4,0.9,0.2,1.8,0.4,2.2c0.5,0.7,0.7,1.4,0.6,2.1c-0.1,0.5-0.4,1-0.9,1.4
	c0.2,0.3,0.3,0.6,0.4,0.9c0.1,0.7-0.2,1.4-0.8,2c-1,1-1,1.6-1,3.7c0,0.6,0,1.2,0,2c0,2.6-2.2,4.3-4.3,4.3h-6.1
	c-2.2,0-3.9,1.8-3.9,3.9v7.9l20.6,5.5V29.2C88.3,16.5,77.9,6,65.1,6L52.9,5.9v27.7c4.4,2,7.3,6.4,7.3,11.3c0,6.8-5.6,12.4-12.4,12.4
	s-12.4-5.6-12.4-12.4c0-5.3,3.3-9.9,8.2-11.7L43.5,5.8L43.5,5.8z M72.3,34.3l5.2,1.1l0.3-0.5c0.6-1,0-2.2-1.1-2.3l-4.4-0.6
	c-1.4-0.2-2.8,0.3-3.8,1.3L64,37.7l5.5-3C70.3,34.3,71.3,34.2,72.3,34.3z M71.2,39.3c0,1,0.8,1.9,1.9,1.9s1.9-0.8,1.9-1.9
	c0-0.2,0-0.4-0.1-0.6l0.8-0.1c0.3-1.5-1.3-2.7-2.7-2L66.8,40L71.2,39.3L71.2,39.3z"/>
</svg>
