<?xml version="1.0" encoding="utf-8"?>
<!-- Generator: Adobe Illustrator 21.0.0, SVG Export Plug-In . SVG Version: 6.00 Build 0)  -->
<svg version="1.1" id="Calque_1" xmlns="http://www.w3.org/2000/svg" xmlns:xlink="http://www.w3.org/1999/xlink" x="0px" y="0px"
	 viewBox="0 0 96 120" style="enable-background:new 0 0 96 120;" xml:space="preserve">
<g>
	<path d="M70.8,67.6H25.2v23.5h45.5V67.6z M68.8,89.2H27.2V69.6h41.7V89.2z"/>
	<path d="M94.6,57h-7.9v-6.4c0-3.9-3.2-7.1-7.1-7.1h-19c-3.9,0-7.1,3.2-7.1,7.1V57H39.6l0.2-2h2c0.8,0,1.4-0.7,1.4-1.5v-4.1
		c0-0.8-0.6-1.5-1.4-1.5h-1.3l0.2-1.6H28.8L29.8,57H1.4v7.8H12V95H84V64.8h10.6C94.6,64.8,94.6,57,94.6,57z M55.4,50.6
		c0-2.8,2.3-5.2,5.2-5.2h19c2.8,0,5.2,2.3,5.2,5.2V57h-6.7v-5.1h-1.9V57H64v-5.1h-1.9V57h-6.7C55.4,57,55.4,50.6,55.4,50.6z
		 M41.2,49.8v3.2H40l0.3-3.2H41.2z M30.9,48.2h7.6L37.6,57h-5.8L30.9,48.2z M82,93.1H14V64.8h68V93.1z M92.6,62.9
		c-8.8,0-68.3,0-80.6,0H3.4v-3.9c27,0,62.2,0,89.2,0L92.6,62.9L92.6,62.9z"/>
	<rect x="59.4" y="73.1" width="5.8" height="1.9"/>
	<rect x="45.4" y="73.1" width="11.5" height="1.9"/>
	<rect x="30.8" y="73.1" width="12.3" height="1.9"/>
	<rect x="55.9" y="78.4" width="9.3" height="1.9"/>
	<rect x="30.8" y="78.4" width="21.2" height="1.9"/>
	<rect x="39.2" y="83.7" width="26" height="1.9"/>
	<rect x="30.8" y="83.7" width="6" height="1.9"/>
	<path d="M80.3,24.3c-0.6-5.3-5-9.2-10.2-9.2s-9.7,4-10.2,9.2L58.2,40H82L80.3,24.3z M60.4,38l1.4-13.5c0.4-4.3,4-7.5,8.3-7.5
		s7.9,3.2,8.3,7.5L79.8,38H60.4z"/>
	<path d="M69.9,20.9L69.3,23c-0.2,0.8-0.2,1.7,0,2.4C67.8,25,66.7,24,66.7,24L65,22.3l0,2.3c0,1.5-1.2,2.5-2.5,3.2
		c0.1,0.4-0.4,3.3,1.8,6c1.4,1.7,3.4,2.7,5.6,2.7c3.1,0,6-2,7.1-4.9c0.7-1.9,0.7-3.7,0.7-3.7v-0.8L76.9,27
		C72.7,25.9,70.9,22.5,69.9,20.9z M75.1,31c-0.8,2.2-2.9,3.7-5.2,3.7c-1.6,0-3.1-0.7-4.1-2c-0.8-1-1.2-2.2-1.3-3.7
		c0.6-0.4,1.6-1.3,2.1-2.6c0.9,0.6,2.3,1.2,3.9,1.2l1.6-0.1l-0.5-1.2c1,0.9,2.4,1.8,4.1,2.4C75.6,29.2,75.5,30.1,75.1,31z"/>
	<path d="M50.3,1H1.4v31.3h48.9V1z M48.4,30.4h-45V2.9h45V30.4z"/>
	<path d="M25.9,28.2c6.3,0,11.5-5.2,11.5-11.5c0-6.3-5.2-11.5-11.5-11.5c-6.3,0-11.5,5.2-11.5,11.5C14.4,23,19.5,28.2,25.9,28.2z
		 M26.8,22.5c1.7,0.2,3.3,0.8,4.7,1.8c-1.3,1-2.9,1.7-4.7,1.8V22.5z M24.9,26.2c-1.7-0.2-3.3-0.8-4.7-1.8c1.4-1,3-1.6,4.7-1.8V26.2z
		 M24.9,20.6c-2.2,0.2-4.4,1-6.1,2.4c-1.3-1.5-2.2-3.3-2.4-5.4h8.5V20.6z M33,23c-1.8-1.4-3.9-2.2-6.2-2.4v-3h8.5
		C35.2,19.7,34.3,21.5,33,23z M35.4,15.7h-8.5v-2.9c2.3-0.2,4.4-1,6.2-2.4C34.3,11.8,35.2,13.6,35.4,15.7z M26.8,7.2
		C28.6,7.4,30.2,8,31.5,9c-1.4,1-3,1.6-4.7,1.8V7.2z M24.9,10.8c-1.7-0.2-3.3-0.8-4.7-1.8c1.3-1,2.9-1.6,4.7-1.8V10.8z M18.8,10.3
		c1.8,1.4,3.9,2.2,6.1,2.4v2.9h-8.5C16.6,13.6,17.5,11.8,18.8,10.3z"/>
	<rect x="42.3" y="9" width="1.9" height="15.4"/>
	<rect x="7.5" y="9" width="1.9" height="15.4"/>
</g>
</svg>
