<?xml version="1.0" encoding="utf-8"?>
<!-- Generator: Adobe Illustrator 21.0.0, SVG Export Plug-In . SVG Version: 6.00 Build 0)  -->
<svg version="1.1" id="Calque_1" xmlns="http://www.w3.org/2000/svg" xmlns:xlink="http://www.w3.org/1999/xlink" x="0px" y="0px"
	 viewBox="0 0 100 125" style="enable-background:new 0 0 100 125;" xml:space="preserve">
<title>server, database, tower, pc, data</title>
<path d="M36,92c0-3.3,2.7-6,6-6h16c3.3,0,6,2.7,6,6v2h13V6H23v88h13V92z M73,90h-5.2c-0.3-1.5-0.9-2.8-1.8-4h7V90z M27,10h46v72H27
	V10z M32.2,90H27v-4h7C33.1,87.2,32.5,88.5,32.2,90z"/>
<rect x="35" y="16" width="30" height="4"/>
<rect x="35" y="26" width="30" height="4"/>
<rect x="35" y="36" width="30" height="4"/>
<rect x="35" y="46" width="30" height="4"/>
<rect x="35" y="56" width="30" height="4"/>
<rect x="50" y="69" width="8" height="4"/>
<circle cx="37" cy="71" r="2"/>
<circle cx="45" cy="71" r="2"/>
<circle cx="63" cy="71" r="2"/>
</svg>
