<?xml version="1.0" encoding="utf-8"?>
<!-- Generator: Adobe Illustrator 21.0.0, SVG Export Plug-In . SVG Version: 6.00 Build 0)  -->
<svg version="1.1" id="Calque_1" xmlns="http://www.w3.org/2000/svg" xmlns:xlink="http://www.w3.org/1999/xlink" x="0px" y="0px"
	 viewBox="0 0 50 62.5" style="enable-background:new 0 0 50 62.5;" xml:space="preserve">
<path d="M10,23v-2H5v-2h5v-4H4c-1.1,0-2,0.9-2,2v26c0,1.1,0.9,2,2,2h6V25H5v-2H10z M27,47H4c-2.2,0-4-1.8-4-4V17c0-2.2,1.8-4,4-4h6
	V7c0-2.2,1.8-4,4-4h13c2.2,0,4,1.8,4,4v36C31,45.2,29.2,47,27,47z M12,13L12,13l0,32h15c1.1,0,2-0.9,2-2V7c0-1.1-0.9-2-2-2H14
	c-1.1,0-2,0.9-2,2V13z M38,13h7c2.2,0,4,1.8,4,4v26c0,2.2-1.8,4-4,4h-7c-2.2,0-4-1.8-4-4V17C34,14.8,35.8,13,38,13z M38,15
	c-1.1,0-2,0.9-2,2v26c0,1.1,0.9,2,2,2h7c1.1,0,2-0.9,2-2V17c0-1.1-0.9-2-2-2H38z M15,9h11v2H15V9z M15,13h11v2H15V13z M39,19h5v2h-5
	V19z M39,23h5v2h-5V23z"/>
</svg>
