<?xml version="1.0" encoding="utf-8"?>
<!-- Generator: Adobe Illustrator 21.0.0, SVG Export Plug-In . SVG Version: 6.00 Build 0)  -->
<svg version="1.1" id="Calque_1" xmlns="http://www.w3.org/2000/svg" xmlns:xlink="http://www.w3.org/1999/xlink" x="0px" y="0px"
	 viewBox="0 0 64 80" style="enable-background:new 0 0 64 80;" xml:space="preserve">
<title>Love, Wedding, romance, camera, video, film, valentine</title>
<g>
	<path d="M38,14c2.2,0,4-1.8,4-4s-1.8-4-4-4s-4,1.8-4,4C34,12.2,35.8,14,38,14z M38,8c1.1,0,2,0.9,2,2s-0.9,2-2,2s-2-0.9-2-2
		C36,8.9,36.9,8,38,8z M25,8c-1.7,0-3,1.3-3,3s1.3,3,3,3s3-1.3,3-3C28,9.3,26.7,8,25,8z M25,12c-0.6,0-1-0.4-1-1s0.4-1,1-1
		s1,0.4,1,1C26,11.6,25.6,12,25,12z M35.9,23c-1.4-0.1-2.9,0.4-3.9,1.5c-2-2-5.2-2-7.2,0s-2,5.2,0,7.2c0.2,0.2,0.3,0.3,0.5,0.4
		l6.1,4.7c0.4,0.3,0.9,0.3,1.2,0l6.1-4.7c2.2-1.7,2.6-4.9,0.9-7.1C38.7,23.8,37.4,23.1,35.9,23z M37.5,30.5L32,34.7l-5.5-4.2
		c-1.3-1-1.6-3-0.5-4.3c0.5-0.7,1.4-1.1,2.3-1.2c0.1,0,0.1,0,0.2,0c0.9,0,1.8,0.4,2.4,1.2l0.4,0.5c0.4,0.4,1,0.5,1.5,0.1
		c0,0,0.1-0.1,0.1-0.1l0.4-0.5c1.1-1.3,3-1.5,4.3-0.5c1.3,1.1,1.5,3,0.5,4.3C37.8,30.2,37.7,30.4,37.5,30.5L37.5,30.5z M44,20
		c-1.7,0-3,1.3-3,3s1.3,3,3,3s3-1.3,3-3C47,21.3,45.7,20,44,20z M44,24c-0.6,0-1-0.4-1-1s0.4-1,1-1s1,0.4,1,1C45,23.6,44.6,24,44,24
		z M60.5,19.1c-0.3-0.2-0.7-0.2-1,0L51,23.4V19c0-1.7-1.3-3-3-3h-4.7c3.3-2.9,3.6-8,0.7-11.3C41.1,1.4,36,1.1,32.7,4
		c-0.9,0.8-1.6,1.8-2.1,2.9c-2.3-3.1-6.7-3.8-9.8-1.5s-3.8,6.7-1.5,9.8c0.2,0.3,0.5,0.6,0.8,0.9H16c-1.7,0-3,1.3-3,3v7h-2v-2
		c0-0.6-0.4-1-1-1H4c-0.6,0-1,0.4-1,1v12c0,0.6,0.4,1,1,1h6c0.6,0,1-0.4,1-1v-2h2v7c0,1.7,1.3,3,3,3h8.5l-5.8,13.2h0
		c-0.6,1.4,0,3,1.4,3.7c1.4,0.6,3,0,3.7-1.4l0,0L29,47.7V59c0,1.7,1.3,3,3,3c1.7,0,3-1.3,3-3V47.7l5.2,11.8c0.6,1.4,2.3,2,3.7,1.4
		c1.4-0.6,2-2.3,1.4-3.7h0L39.5,44H48c1.7,0,3-1.3,3-3v-4.4l8.6,4.3c0.5,0.2,1.1,0,1.3-0.4C61,40.3,61,40.2,61,40V20
		C61,19.7,60.8,19.3,60.5,19.1z M38,4c3.3,0,6,2.7,6,6s-2.7,6-6,6s-6-2.7-6-6C32,6.7,34.7,4,38,4z M32.7,16h-2.8
		c0.5-0.5,1-1.1,1.3-1.8C31.6,14.9,32.1,15.5,32.7,16z M20,11c0-2.8,2.2-5,5-5s5,2.2,5,5s-2.2,5-5,5C22.2,16,20,13.8,20,11z M9,35H5
		V25h4V35z M11,32v-4h2v4H11z M21.9,58.7c-0.2,0.4-0.6,0.6-1,0.4c-0.4-0.2-0.6-0.6-0.4-1l0,0l6.1-14h1.8L21.9,58.7z M33,59
		c0,0.6-0.4,1-1,1s-1-0.4-1-1V44h2V59z M43.5,58c0.2,0.4,0,0.9-0.4,1c-0.4,0.2-0.9,0-1-0.4l0,0L35.5,44h1.8L43.5,58z M49,41
		c0,0.6-0.4,1-1,1H16c-0.6,0-1-0.4-1-1V19c0-0.6,0.4-1,1-1h32c0.6,0,1,0.4,1,1V41z M59,38.4l-8-4v-8.8l8-4V38.4z"/>
</g>
</svg>
